G75*
%MOIN*%
%OFA0B0*%
%FSLAX24Y24*%
%IPPOS*%
%LPD*%
%AMOC8*
5,1,8,0,0,1.08239X$1,22.5*
%
%ADD10C,0.0000*%
D10*
X001113Y000550D02*
X001113Y033546D01*
X038983Y033546D01*
X038983Y000550D01*
X001113Y000550D01*
X001963Y002050D02*
X001965Y002100D01*
X001971Y002150D01*
X001981Y002200D01*
X001994Y002248D01*
X002011Y002296D01*
X002032Y002342D01*
X002056Y002386D01*
X002084Y002428D01*
X002115Y002468D01*
X002149Y002505D01*
X002186Y002540D01*
X002225Y002571D01*
X002266Y002600D01*
X002310Y002625D01*
X002356Y002647D01*
X002403Y002665D01*
X002451Y002679D01*
X002500Y002690D01*
X002550Y002697D01*
X002600Y002700D01*
X002651Y002699D01*
X002701Y002694D01*
X002751Y002685D01*
X002799Y002673D01*
X002847Y002656D01*
X002893Y002636D01*
X002938Y002613D01*
X002981Y002586D01*
X003021Y002556D01*
X003059Y002523D01*
X003094Y002487D01*
X003127Y002448D01*
X003156Y002407D01*
X003182Y002364D01*
X003205Y002319D01*
X003224Y002272D01*
X003239Y002224D01*
X003251Y002175D01*
X003259Y002125D01*
X003263Y002075D01*
X003263Y002025D01*
X003259Y001975D01*
X003251Y001925D01*
X003239Y001876D01*
X003224Y001828D01*
X003205Y001781D01*
X003182Y001736D01*
X003156Y001693D01*
X003127Y001652D01*
X003094Y001613D01*
X003059Y001577D01*
X003021Y001544D01*
X002981Y001514D01*
X002938Y001487D01*
X002893Y001464D01*
X002847Y001444D01*
X002799Y001427D01*
X002751Y001415D01*
X002701Y001406D01*
X002651Y001401D01*
X002600Y001400D01*
X002550Y001403D01*
X002500Y001410D01*
X002451Y001421D01*
X002403Y001435D01*
X002356Y001453D01*
X002310Y001475D01*
X002266Y001500D01*
X002225Y001529D01*
X002186Y001560D01*
X002149Y001595D01*
X002115Y001632D01*
X002084Y001672D01*
X002056Y001714D01*
X002032Y001758D01*
X002011Y001804D01*
X001994Y001852D01*
X001981Y001900D01*
X001971Y001950D01*
X001965Y002000D01*
X001963Y002050D01*
X001963Y032050D02*
X001965Y032100D01*
X001971Y032150D01*
X001981Y032200D01*
X001994Y032248D01*
X002011Y032296D01*
X002032Y032342D01*
X002056Y032386D01*
X002084Y032428D01*
X002115Y032468D01*
X002149Y032505D01*
X002186Y032540D01*
X002225Y032571D01*
X002266Y032600D01*
X002310Y032625D01*
X002356Y032647D01*
X002403Y032665D01*
X002451Y032679D01*
X002500Y032690D01*
X002550Y032697D01*
X002600Y032700D01*
X002651Y032699D01*
X002701Y032694D01*
X002751Y032685D01*
X002799Y032673D01*
X002847Y032656D01*
X002893Y032636D01*
X002938Y032613D01*
X002981Y032586D01*
X003021Y032556D01*
X003059Y032523D01*
X003094Y032487D01*
X003127Y032448D01*
X003156Y032407D01*
X003182Y032364D01*
X003205Y032319D01*
X003224Y032272D01*
X003239Y032224D01*
X003251Y032175D01*
X003259Y032125D01*
X003263Y032075D01*
X003263Y032025D01*
X003259Y031975D01*
X003251Y031925D01*
X003239Y031876D01*
X003224Y031828D01*
X003205Y031781D01*
X003182Y031736D01*
X003156Y031693D01*
X003127Y031652D01*
X003094Y031613D01*
X003059Y031577D01*
X003021Y031544D01*
X002981Y031514D01*
X002938Y031487D01*
X002893Y031464D01*
X002847Y031444D01*
X002799Y031427D01*
X002751Y031415D01*
X002701Y031406D01*
X002651Y031401D01*
X002600Y031400D01*
X002550Y031403D01*
X002500Y031410D01*
X002451Y031421D01*
X002403Y031435D01*
X002356Y031453D01*
X002310Y031475D01*
X002266Y031500D01*
X002225Y031529D01*
X002186Y031560D01*
X002149Y031595D01*
X002115Y031632D01*
X002084Y031672D01*
X002056Y031714D01*
X002032Y031758D01*
X002011Y031804D01*
X001994Y031852D01*
X001981Y031900D01*
X001971Y031950D01*
X001965Y032000D01*
X001963Y032050D01*
X036963Y032050D02*
X036965Y032100D01*
X036971Y032150D01*
X036981Y032200D01*
X036994Y032248D01*
X037011Y032296D01*
X037032Y032342D01*
X037056Y032386D01*
X037084Y032428D01*
X037115Y032468D01*
X037149Y032505D01*
X037186Y032540D01*
X037225Y032571D01*
X037266Y032600D01*
X037310Y032625D01*
X037356Y032647D01*
X037403Y032665D01*
X037451Y032679D01*
X037500Y032690D01*
X037550Y032697D01*
X037600Y032700D01*
X037651Y032699D01*
X037701Y032694D01*
X037751Y032685D01*
X037799Y032673D01*
X037847Y032656D01*
X037893Y032636D01*
X037938Y032613D01*
X037981Y032586D01*
X038021Y032556D01*
X038059Y032523D01*
X038094Y032487D01*
X038127Y032448D01*
X038156Y032407D01*
X038182Y032364D01*
X038205Y032319D01*
X038224Y032272D01*
X038239Y032224D01*
X038251Y032175D01*
X038259Y032125D01*
X038263Y032075D01*
X038263Y032025D01*
X038259Y031975D01*
X038251Y031925D01*
X038239Y031876D01*
X038224Y031828D01*
X038205Y031781D01*
X038182Y031736D01*
X038156Y031693D01*
X038127Y031652D01*
X038094Y031613D01*
X038059Y031577D01*
X038021Y031544D01*
X037981Y031514D01*
X037938Y031487D01*
X037893Y031464D01*
X037847Y031444D01*
X037799Y031427D01*
X037751Y031415D01*
X037701Y031406D01*
X037651Y031401D01*
X037600Y031400D01*
X037550Y031403D01*
X037500Y031410D01*
X037451Y031421D01*
X037403Y031435D01*
X037356Y031453D01*
X037310Y031475D01*
X037266Y031500D01*
X037225Y031529D01*
X037186Y031560D01*
X037149Y031595D01*
X037115Y031632D01*
X037084Y031672D01*
X037056Y031714D01*
X037032Y031758D01*
X037011Y031804D01*
X036994Y031852D01*
X036981Y031900D01*
X036971Y031950D01*
X036965Y032000D01*
X036963Y032050D01*
X036963Y002050D02*
X036965Y002100D01*
X036971Y002150D01*
X036981Y002200D01*
X036994Y002248D01*
X037011Y002296D01*
X037032Y002342D01*
X037056Y002386D01*
X037084Y002428D01*
X037115Y002468D01*
X037149Y002505D01*
X037186Y002540D01*
X037225Y002571D01*
X037266Y002600D01*
X037310Y002625D01*
X037356Y002647D01*
X037403Y002665D01*
X037451Y002679D01*
X037500Y002690D01*
X037550Y002697D01*
X037600Y002700D01*
X037651Y002699D01*
X037701Y002694D01*
X037751Y002685D01*
X037799Y002673D01*
X037847Y002656D01*
X037893Y002636D01*
X037938Y002613D01*
X037981Y002586D01*
X038021Y002556D01*
X038059Y002523D01*
X038094Y002487D01*
X038127Y002448D01*
X038156Y002407D01*
X038182Y002364D01*
X038205Y002319D01*
X038224Y002272D01*
X038239Y002224D01*
X038251Y002175D01*
X038259Y002125D01*
X038263Y002075D01*
X038263Y002025D01*
X038259Y001975D01*
X038251Y001925D01*
X038239Y001876D01*
X038224Y001828D01*
X038205Y001781D01*
X038182Y001736D01*
X038156Y001693D01*
X038127Y001652D01*
X038094Y001613D01*
X038059Y001577D01*
X038021Y001544D01*
X037981Y001514D01*
X037938Y001487D01*
X037893Y001464D01*
X037847Y001444D01*
X037799Y001427D01*
X037751Y001415D01*
X037701Y001406D01*
X037651Y001401D01*
X037600Y001400D01*
X037550Y001403D01*
X037500Y001410D01*
X037451Y001421D01*
X037403Y001435D01*
X037356Y001453D01*
X037310Y001475D01*
X037266Y001500D01*
X037225Y001529D01*
X037186Y001560D01*
X037149Y001595D01*
X037115Y001632D01*
X037084Y001672D01*
X037056Y001714D01*
X037032Y001758D01*
X037011Y001804D01*
X036994Y001852D01*
X036981Y001900D01*
X036971Y001950D01*
X036965Y002000D01*
X036963Y002050D01*
M02*
