G75*
%MOIN*%
%OFA0B0*%
%FSLAX24Y24*%
%IPPOS*%
%LPD*%
%AMOC8*
5,1,8,0,0,1.08239X$1,22.5*
%
%ADD10C,0.0600*%
%ADD11C,0.1380*%
%ADD12C,0.0640*%
%ADD13OC8,0.0640*%
%ADD14C,0.0595*%
%ADD15C,0.0820*%
%ADD16C,0.1025*%
%ADD17C,0.0050*%
%ADD18OC8,0.0710*%
%ADD19C,0.0730*%
%ADD20R,0.0730X0.0730*%
%ADD21OC8,0.0820*%
%ADD22C,0.1070*%
%ADD23R,0.0820X0.0820*%
%ADD24C,0.0480*%
D10*
X007613Y003790D02*
X007613Y004310D01*
X008613Y004310D02*
X008613Y003790D01*
X009613Y003790D02*
X009613Y004310D01*
X010613Y004310D02*
X010613Y003790D01*
X011613Y003790D02*
X011613Y004310D01*
X012613Y004310D02*
X012613Y003790D01*
X013613Y003790D02*
X013613Y004310D01*
X014613Y004310D02*
X014613Y003790D01*
X014613Y006790D02*
X014613Y007310D01*
X013613Y007310D02*
X013613Y006790D01*
X012613Y006790D02*
X012613Y007310D01*
X011613Y007310D02*
X011613Y006790D01*
X010613Y006790D02*
X010613Y007310D01*
X009613Y007310D02*
X009613Y006790D01*
X008613Y006790D02*
X008613Y007310D01*
X007613Y007310D02*
X007613Y006790D01*
X007613Y009790D02*
X007613Y010310D01*
X008613Y010310D02*
X008613Y009790D01*
X009613Y009790D02*
X009613Y010310D01*
X010613Y010310D02*
X010613Y009790D01*
X011613Y009790D02*
X011613Y010310D01*
X012613Y010310D02*
X012613Y009790D01*
X013613Y009790D02*
X013613Y010310D01*
X014613Y010310D02*
X014613Y009790D01*
X014613Y012790D02*
X014613Y013310D01*
X013613Y013310D02*
X013613Y012790D01*
X012613Y012790D02*
X012613Y013310D01*
X011613Y013310D02*
X011613Y012790D01*
X010613Y012790D02*
X010613Y013310D01*
X009613Y013310D02*
X009613Y012790D01*
X008613Y012790D02*
X008613Y013310D01*
X007613Y013310D02*
X007613Y012790D01*
X007853Y019050D02*
X008373Y019050D01*
X008373Y020050D02*
X007853Y020050D01*
X007853Y021050D02*
X008373Y021050D01*
X008373Y022050D02*
X007853Y022050D01*
X007853Y023050D02*
X008373Y023050D01*
X008373Y024050D02*
X007853Y024050D01*
X007853Y025050D02*
X008373Y025050D01*
X008373Y026050D02*
X007853Y026050D01*
X010853Y026050D02*
X011373Y026050D01*
X011373Y025050D02*
X010853Y025050D01*
X010853Y024050D02*
X011373Y024050D01*
X011373Y023050D02*
X010853Y023050D01*
X010853Y022050D02*
X011373Y022050D01*
X011373Y021050D02*
X010853Y021050D01*
X010853Y020050D02*
X011373Y020050D01*
X011373Y019050D02*
X010853Y019050D01*
X012853Y019050D02*
X013373Y019050D01*
X013373Y020050D02*
X012853Y020050D01*
X012853Y021050D02*
X013373Y021050D01*
X013373Y022050D02*
X012853Y022050D01*
X012853Y023050D02*
X013373Y023050D01*
X013373Y024050D02*
X012853Y024050D01*
X012853Y025050D02*
X013373Y025050D01*
X013373Y026050D02*
X012853Y026050D01*
X015853Y026050D02*
X016373Y026050D01*
X016373Y025050D02*
X015853Y025050D01*
X015853Y024050D02*
X016373Y024050D01*
X016373Y023050D02*
X015853Y023050D01*
X015853Y022050D02*
X016373Y022050D01*
X016373Y021050D02*
X015853Y021050D01*
X015853Y020050D02*
X016373Y020050D01*
X016373Y019050D02*
X015853Y019050D01*
X018613Y019290D02*
X018613Y019810D01*
X019613Y019810D02*
X019613Y019290D01*
X020613Y019290D02*
X020613Y019810D01*
X021613Y019810D02*
X021613Y019290D01*
X022613Y019290D02*
X022613Y019810D01*
X023613Y019810D02*
X023613Y019290D01*
X024613Y019290D02*
X024613Y019810D01*
X025613Y019810D02*
X025613Y019290D01*
X025613Y022290D02*
X025613Y022810D01*
X024613Y022810D02*
X024613Y022290D01*
X023613Y022290D02*
X023613Y022810D01*
X022613Y022810D02*
X022613Y022290D01*
X021613Y022290D02*
X021613Y022810D01*
X020613Y022810D02*
X020613Y022290D01*
X019613Y022290D02*
X019613Y022810D01*
X018613Y022810D02*
X018613Y022290D01*
X018613Y024290D02*
X018613Y024810D01*
X019613Y024810D02*
X019613Y024290D01*
X020613Y024290D02*
X020613Y024810D01*
X021613Y024810D02*
X021613Y024290D01*
X022613Y024290D02*
X022613Y024810D01*
X023613Y024810D02*
X023613Y024290D01*
X024613Y024290D02*
X024613Y024810D01*
X025613Y024810D02*
X025613Y024290D01*
X025613Y027290D02*
X025613Y027810D01*
X024613Y027810D02*
X024613Y027290D01*
X023613Y027290D02*
X023613Y027810D01*
X022613Y027810D02*
X022613Y027290D01*
X021613Y027290D02*
X021613Y027810D01*
X020613Y027810D02*
X020613Y027290D01*
X019613Y027290D02*
X019613Y027810D01*
X018613Y027810D02*
X018613Y027290D01*
X029353Y023050D02*
X029873Y023050D01*
X029873Y022050D02*
X029353Y022050D01*
X029353Y021050D02*
X029873Y021050D01*
X029873Y020050D02*
X029353Y020050D01*
X029353Y019050D02*
X029873Y019050D01*
X029873Y018050D02*
X029353Y018050D01*
X029353Y017050D02*
X029873Y017050D01*
X029873Y016050D02*
X029353Y016050D01*
X032353Y016050D02*
X032873Y016050D01*
X032873Y017050D02*
X032353Y017050D01*
X032353Y018050D02*
X032873Y018050D01*
X032873Y019050D02*
X032353Y019050D01*
X032353Y020050D02*
X032873Y020050D01*
X032873Y021050D02*
X032353Y021050D01*
X032353Y022050D02*
X032873Y022050D01*
X032873Y023050D02*
X032353Y023050D01*
X026113Y013310D02*
X026113Y012790D01*
X025113Y012790D02*
X025113Y013310D01*
X024113Y013310D02*
X024113Y012790D01*
X023113Y012790D02*
X023113Y013310D01*
X022113Y013310D02*
X022113Y012790D01*
X021113Y012790D02*
X021113Y013310D01*
X020113Y013310D02*
X020113Y012790D01*
X019113Y012790D02*
X019113Y013310D01*
X019113Y010310D02*
X019113Y009790D01*
X020113Y009790D02*
X020113Y010310D01*
X021113Y010310D02*
X021113Y009790D01*
X022113Y009790D02*
X022113Y010310D01*
X023113Y010310D02*
X023113Y009790D01*
X024113Y009790D02*
X024113Y010310D01*
X025113Y010310D02*
X025113Y009790D01*
X026113Y009790D02*
X026113Y010310D01*
X026113Y007310D02*
X026113Y006790D01*
X025113Y006790D02*
X025113Y007310D01*
X024113Y007310D02*
X024113Y006790D01*
X023113Y006790D02*
X023113Y007310D01*
X022113Y007310D02*
X022113Y006790D01*
X021113Y006790D02*
X021113Y007310D01*
X020113Y007310D02*
X020113Y006790D01*
X019113Y006790D02*
X019113Y007310D01*
X019113Y004310D02*
X019113Y003790D01*
X020113Y003790D02*
X020113Y004310D01*
X021113Y004310D02*
X021113Y003790D01*
X022113Y003790D02*
X022113Y004310D01*
X023113Y004310D02*
X023113Y003790D01*
X024113Y003790D02*
X024113Y004310D01*
X025113Y004310D02*
X025113Y003790D01*
X026113Y003790D02*
X026113Y004310D01*
X029353Y004050D02*
X029873Y004050D01*
X029873Y005050D02*
X029353Y005050D01*
X029353Y006050D02*
X029873Y006050D01*
X029873Y007050D02*
X029353Y007050D01*
X029353Y008050D02*
X029873Y008050D01*
X029873Y009050D02*
X029353Y009050D01*
X029353Y010050D02*
X029873Y010050D01*
X029873Y011050D02*
X029353Y011050D01*
X032353Y011050D02*
X032873Y011050D01*
X032873Y010050D02*
X032353Y010050D01*
X032353Y009050D02*
X032873Y009050D01*
X032873Y008050D02*
X032353Y008050D01*
X032353Y007050D02*
X032873Y007050D01*
X032873Y006050D02*
X032353Y006050D01*
X032353Y005050D02*
X032873Y005050D01*
X032873Y004050D02*
X032353Y004050D01*
D11*
X002613Y002050D03*
X002613Y032050D03*
X037613Y032050D03*
X037613Y002050D03*
D12*
X037613Y005550D03*
X024613Y032050D03*
D13*
X023613Y032050D03*
X022613Y032050D03*
X021613Y032050D03*
X020613Y032050D03*
X019613Y032050D03*
X018613Y032050D03*
X017613Y032050D03*
X016613Y032050D03*
X015613Y032050D03*
X014613Y032050D03*
X013613Y032050D03*
X012613Y032050D03*
X011613Y032050D03*
X010613Y032050D03*
X009613Y032050D03*
X008613Y032050D03*
X008613Y031050D03*
X009613Y031050D03*
X010613Y031050D03*
X011613Y031050D03*
X012613Y031050D03*
X013613Y031050D03*
X014613Y031050D03*
X015613Y031050D03*
X016613Y031050D03*
X017613Y031050D03*
X018613Y031050D03*
X019613Y031050D03*
X020613Y031050D03*
X021613Y031050D03*
X022613Y031050D03*
X023613Y031050D03*
X024613Y031050D03*
X036613Y021550D03*
X036613Y020550D03*
X036613Y019550D03*
X036613Y018550D03*
X036613Y017550D03*
X036613Y016550D03*
X036613Y015550D03*
X036613Y014550D03*
X036613Y013550D03*
X036613Y012550D03*
X036613Y011550D03*
X036613Y010550D03*
X036613Y009550D03*
X036613Y008550D03*
X036613Y007550D03*
X036613Y006550D03*
X036613Y005550D03*
X037613Y006550D03*
X037613Y007550D03*
X037613Y008550D03*
X037613Y009550D03*
X037613Y010550D03*
X037613Y011550D03*
X037613Y012550D03*
X037613Y013550D03*
X037613Y014550D03*
X037613Y015550D03*
X037613Y016550D03*
X037613Y017550D03*
X037613Y018550D03*
X037613Y019550D03*
X037613Y020550D03*
X037613Y021550D03*
D14*
X002852Y015912D02*
X002337Y015912D01*
X002337Y015125D02*
X002852Y015125D01*
X002852Y014337D02*
X002337Y014337D01*
X002337Y013550D02*
X002852Y013550D01*
X002852Y012763D02*
X002337Y012763D01*
X002337Y011975D02*
X002852Y011975D01*
X002852Y011188D02*
X002337Y011188D01*
X002337Y008912D02*
X002852Y008912D01*
X002852Y008125D02*
X002337Y008125D01*
X002337Y007337D02*
X002852Y007337D01*
X002852Y006550D02*
X002337Y006550D01*
X002337Y005763D02*
X002852Y005763D01*
X002852Y004975D02*
X002337Y004975D01*
X002337Y004188D02*
X002852Y004188D01*
D15*
X005113Y001550D03*
X006113Y001550D03*
X007113Y001550D03*
X008113Y001550D03*
X009113Y001550D03*
X010113Y001550D03*
X011113Y001550D03*
X012113Y001550D03*
X013113Y001550D03*
X014113Y001550D03*
X015113Y001550D03*
X017613Y001550D03*
X018613Y001550D03*
X019613Y001550D03*
X020613Y001550D03*
X021613Y001550D03*
X022613Y001550D03*
X023613Y001550D03*
X024613Y001550D03*
X024613Y002550D03*
X025613Y002550D03*
X025613Y001550D03*
X026613Y001550D03*
X027613Y001550D03*
X026613Y002550D03*
X002613Y028050D03*
X002613Y029050D03*
X002613Y030050D03*
D16*
X020113Y016550D03*
X021613Y016550D03*
X024613Y016550D03*
X026113Y016550D03*
D17*
X035478Y023939D02*
X035458Y023972D01*
X035445Y024009D01*
X035441Y024047D01*
X035445Y024085D01*
X035457Y024122D01*
X035476Y024155D01*
X035503Y024182D01*
X035535Y024203D01*
X035570Y024217D01*
X035608Y024222D01*
X035648Y024219D01*
X035687Y024206D01*
X035721Y024186D01*
X035750Y024158D01*
X035773Y024124D01*
X035787Y024087D01*
X035792Y024047D01*
X035787Y024008D01*
X035773Y023971D01*
X035752Y023937D01*
X035723Y023910D01*
X035689Y023889D01*
X035652Y023877D01*
X035612Y023873D01*
X035574Y023878D01*
X035538Y023891D01*
X035505Y023912D01*
X035478Y023939D01*
X035490Y023927D02*
X035741Y023927D01*
X035775Y023976D02*
X035457Y023976D01*
X035444Y024024D02*
X035789Y024024D01*
X035789Y024073D02*
X035444Y024073D01*
X035456Y024121D02*
X035774Y024121D01*
X035738Y024170D02*
X035491Y024170D01*
X035580Y024218D02*
X035650Y024218D01*
X035657Y023879D02*
X035571Y023879D01*
X037441Y024047D02*
X037445Y024009D01*
X037458Y023972D01*
X037478Y023939D01*
X037505Y023912D01*
X037538Y023891D01*
X037574Y023878D01*
X037612Y023873D01*
X037652Y023877D01*
X037689Y023889D01*
X037723Y023910D01*
X037752Y023937D01*
X037773Y023971D01*
X037787Y024008D01*
X037792Y024047D01*
X037787Y024087D01*
X037773Y024124D01*
X037750Y024158D01*
X037721Y024186D01*
X037687Y024206D01*
X037648Y024219D01*
X037608Y024222D01*
X037570Y024217D01*
X037535Y024203D01*
X037503Y024182D01*
X037476Y024155D01*
X037457Y024122D01*
X037445Y024085D01*
X037441Y024047D01*
X037444Y024024D02*
X037789Y024024D01*
X037789Y024073D02*
X037444Y024073D01*
X037456Y024121D02*
X037774Y024121D01*
X037738Y024170D02*
X037491Y024170D01*
X037580Y024218D02*
X037650Y024218D01*
X037775Y023976D02*
X037457Y023976D01*
X037490Y023927D02*
X037741Y023927D01*
X037657Y023879D02*
X037571Y023879D01*
X037609Y026876D02*
X037571Y026881D01*
X037535Y026894D01*
X037502Y026915D01*
X037475Y026942D01*
X037455Y026975D01*
X037442Y027012D01*
X037438Y027050D01*
X037442Y027088D01*
X037454Y027125D01*
X037473Y027157D01*
X037500Y027185D01*
X037532Y027206D01*
X037567Y027220D01*
X037605Y027225D01*
X037645Y027221D01*
X037684Y027209D01*
X037718Y027189D01*
X037747Y027161D01*
X037770Y027127D01*
X037784Y027090D01*
X037789Y027050D01*
X037784Y027011D01*
X037770Y026974D01*
X037749Y026940D01*
X037720Y026913D01*
X037686Y026892D01*
X037649Y026880D01*
X037609Y026876D01*
X037557Y026886D02*
X037666Y026886D01*
X037742Y026934D02*
X037483Y026934D01*
X037452Y026983D02*
X037774Y026983D01*
X037787Y027031D02*
X037440Y027031D01*
X037441Y027080D02*
X037785Y027080D01*
X037769Y027128D02*
X037456Y027128D01*
X037491Y027177D02*
X037731Y027177D01*
X035789Y027050D02*
X035784Y027011D01*
X035770Y026974D01*
X035749Y026940D01*
X035720Y026913D01*
X035686Y026892D01*
X035649Y026880D01*
X035609Y026876D01*
X035571Y026881D01*
X035535Y026894D01*
X035502Y026915D01*
X035475Y026942D01*
X035455Y026975D01*
X035442Y027012D01*
X035438Y027050D01*
X035442Y027088D01*
X035454Y027125D01*
X035473Y027157D01*
X035500Y027185D01*
X035532Y027206D01*
X035567Y027220D01*
X035605Y027225D01*
X035645Y027221D01*
X035684Y027209D01*
X035718Y027189D01*
X035747Y027161D01*
X035770Y027127D01*
X035784Y027090D01*
X035789Y027050D01*
X035787Y027031D02*
X035440Y027031D01*
X035441Y027080D02*
X035785Y027080D01*
X035769Y027128D02*
X035456Y027128D01*
X035491Y027177D02*
X035731Y027177D01*
X035774Y026983D02*
X035452Y026983D01*
X035483Y026934D02*
X035742Y026934D01*
X035666Y026886D02*
X035557Y026886D01*
D18*
X031613Y025550D03*
X030613Y025550D03*
X027613Y025550D03*
X027613Y026550D03*
X027613Y021550D03*
X027613Y020550D03*
X030613Y013550D03*
X031613Y013550D03*
X016613Y012050D03*
X016613Y011050D03*
X016613Y006050D03*
X016613Y005050D03*
X005113Y005050D03*
X005113Y006050D03*
X005113Y011050D03*
X005113Y012050D03*
X009113Y028550D03*
X010113Y028550D03*
X014113Y028550D03*
X015113Y028550D03*
D19*
X016113Y016550D03*
X012113Y016550D03*
X029113Y029050D03*
X032113Y029050D03*
X035113Y029050D03*
D20*
X036113Y029050D03*
X033113Y029050D03*
X030113Y029050D03*
X016113Y015550D03*
X012113Y015550D03*
D21*
X030113Y031550D03*
X031113Y031550D03*
X031113Y032550D03*
X030113Y032550D03*
X032113Y032550D03*
X033113Y032550D03*
X033113Y031550D03*
X032113Y031550D03*
X034113Y031550D03*
X034113Y032550D03*
D22*
X003608Y025950D02*
X002618Y025950D01*
X002618Y024390D02*
X003608Y024390D01*
X003608Y022830D02*
X002618Y022830D01*
X002618Y021270D02*
X003608Y021270D01*
X003608Y019710D02*
X002618Y019710D01*
X002618Y018150D02*
X003608Y018150D01*
D23*
X027613Y002550D03*
D24*
X028953Y004630D03*
X031273Y005190D03*
X033193Y005590D03*
X034713Y007990D03*
X034313Y008870D03*
X034873Y009750D03*
X034793Y010790D03*
X035193Y011190D03*
X035753Y011990D03*
X034713Y012150D03*
X034313Y011750D03*
X033913Y012550D03*
X034633Y013830D03*
X035113Y014630D03*
X034633Y015430D03*
X034873Y016710D03*
X034873Y017190D03*
X034873Y017670D03*
X035113Y018310D03*
X034153Y018470D03*
X031753Y017030D03*
X031593Y016550D03*
X030793Y017510D03*
X030633Y018230D03*
X031593Y017910D03*
X031753Y019990D03*
X031593Y021030D03*
X030233Y021510D03*
X031033Y022870D03*
X031513Y024070D03*
X028473Y023270D03*
X026633Y021430D03*
X024393Y020630D03*
X023593Y021030D03*
X023193Y018870D03*
X023673Y018070D03*
X021913Y018390D03*
X020153Y020150D03*
X021193Y021830D03*
X022153Y023190D03*
X023193Y025670D03*
X023993Y025750D03*
X022233Y026870D03*
X023353Y028470D03*
X023033Y028870D03*
X024073Y029350D03*
X024073Y028310D03*
X025673Y029350D03*
X026793Y030310D03*
X026393Y030870D03*
X025673Y030630D03*
X024153Y030710D03*
X022233Y030310D03*
X019673Y029110D03*
X018233Y029350D03*
X017433Y030310D03*
X016233Y030470D03*
X018153Y031510D03*
X014233Y027670D03*
X013833Y027190D03*
X012793Y026950D03*
X010233Y027910D03*
X008793Y027750D03*
X007033Y029510D03*
X007433Y030310D03*
X006153Y031350D03*
X012793Y030310D03*
X015593Y024550D03*
X017753Y023830D03*
X017833Y022630D03*
X017433Y021430D03*
X016633Y016150D03*
X017033Y015270D03*
X017033Y014710D03*
X018793Y014070D03*
X019673Y011510D03*
X017833Y011350D03*
X017033Y011510D03*
X017993Y008550D03*
X018953Y008150D03*
X020793Y008150D03*
X021273Y008150D03*
X023673Y006070D03*
X024713Y005110D03*
X026633Y006470D03*
X027033Y006950D03*
X026953Y009110D03*
X027273Y010390D03*
X027193Y010870D03*
X028553Y013350D03*
X029993Y014230D03*
X031193Y014230D03*
X030873Y015270D03*
X027753Y017110D03*
X028313Y018470D03*
X027273Y018950D03*
X026873Y015270D03*
X023273Y014630D03*
X023513Y011750D03*
X018393Y005750D03*
X022073Y002070D03*
X012153Y002870D03*
X009993Y005510D03*
X008953Y007750D03*
X009993Y008630D03*
X012233Y011910D03*
X008793Y017670D03*
X009193Y018070D03*
X005513Y013190D03*
X009193Y023590D03*
X009753Y023670D03*
X026793Y026150D03*
X033593Y021510D03*
X034713Y020870D03*
X035753Y013110D03*
X036953Y012070D03*
X036953Y008070D03*
X037593Y004950D03*
X037593Y004470D03*
X037273Y003510D03*
X035593Y002950D03*
X031673Y011750D03*
X030793Y012550D03*
M02*
