G75*
%MOIN*%
%OFA0B0*%
%FSLAX24Y24*%
%IPPOS*%
%LPD*%
%AMOC8*
5,1,8,0,0,1.08239X$1,22.5*
%
%ADD10C,0.0520*%
%ADD11C,0.0560*%
%ADD12OC8,0.0560*%
%ADD13C,0.0515*%
%ADD14C,0.0740*%
%ADD15C,0.0945*%
%ADD16C,0.0800*%
%ADD17OC8,0.0630*%
%ADD18C,0.0650*%
%ADD19R,0.0650X0.0650*%
%ADD20OC8,0.0740*%
%ADD21C,0.0990*%
%ADD22R,0.0740X0.0740*%
%ADD23C,0.0100*%
%ADD24C,0.0400*%
%ADD25C,0.0240*%
%ADD26C,0.0320*%
D10*
X007613Y003790D02*
X007613Y004310D01*
X008613Y004310D02*
X008613Y003790D01*
X009613Y003790D02*
X009613Y004310D01*
X010613Y004310D02*
X010613Y003790D01*
X011613Y003790D02*
X011613Y004310D01*
X012613Y004310D02*
X012613Y003790D01*
X013613Y003790D02*
X013613Y004310D01*
X014613Y004310D02*
X014613Y003790D01*
X014613Y006790D02*
X014613Y007310D01*
X013613Y007310D02*
X013613Y006790D01*
X012613Y006790D02*
X012613Y007310D01*
X011613Y007310D02*
X011613Y006790D01*
X010613Y006790D02*
X010613Y007310D01*
X009613Y007310D02*
X009613Y006790D01*
X008613Y006790D02*
X008613Y007310D01*
X007613Y007310D02*
X007613Y006790D01*
X007613Y009790D02*
X007613Y010310D01*
X008613Y010310D02*
X008613Y009790D01*
X009613Y009790D02*
X009613Y010310D01*
X010613Y010310D02*
X010613Y009790D01*
X011613Y009790D02*
X011613Y010310D01*
X012613Y010310D02*
X012613Y009790D01*
X013613Y009790D02*
X013613Y010310D01*
X014613Y010310D02*
X014613Y009790D01*
X014613Y012790D02*
X014613Y013310D01*
X013613Y013310D02*
X013613Y012790D01*
X012613Y012790D02*
X012613Y013310D01*
X011613Y013310D02*
X011613Y012790D01*
X010613Y012790D02*
X010613Y013310D01*
X009613Y013310D02*
X009613Y012790D01*
X008613Y012790D02*
X008613Y013310D01*
X007613Y013310D02*
X007613Y012790D01*
X007853Y019050D02*
X008373Y019050D01*
X008373Y020050D02*
X007853Y020050D01*
X007853Y021050D02*
X008373Y021050D01*
X008373Y022050D02*
X007853Y022050D01*
X007853Y023050D02*
X008373Y023050D01*
X008373Y024050D02*
X007853Y024050D01*
X007853Y025050D02*
X008373Y025050D01*
X008373Y026050D02*
X007853Y026050D01*
X010853Y026050D02*
X011373Y026050D01*
X011373Y025050D02*
X010853Y025050D01*
X010853Y024050D02*
X011373Y024050D01*
X011373Y023050D02*
X010853Y023050D01*
X010853Y022050D02*
X011373Y022050D01*
X011373Y021050D02*
X010853Y021050D01*
X010853Y020050D02*
X011373Y020050D01*
X011373Y019050D02*
X010853Y019050D01*
X012853Y019050D02*
X013373Y019050D01*
X013373Y020050D02*
X012853Y020050D01*
X012853Y021050D02*
X013373Y021050D01*
X013373Y022050D02*
X012853Y022050D01*
X012853Y023050D02*
X013373Y023050D01*
X013373Y024050D02*
X012853Y024050D01*
X012853Y025050D02*
X013373Y025050D01*
X013373Y026050D02*
X012853Y026050D01*
X015853Y026050D02*
X016373Y026050D01*
X016373Y025050D02*
X015853Y025050D01*
X015853Y024050D02*
X016373Y024050D01*
X016373Y023050D02*
X015853Y023050D01*
X015853Y022050D02*
X016373Y022050D01*
X016373Y021050D02*
X015853Y021050D01*
X015853Y020050D02*
X016373Y020050D01*
X016373Y019050D02*
X015853Y019050D01*
X018613Y019290D02*
X018613Y019810D01*
X019613Y019810D02*
X019613Y019290D01*
X020613Y019290D02*
X020613Y019810D01*
X021613Y019810D02*
X021613Y019290D01*
X022613Y019290D02*
X022613Y019810D01*
X023613Y019810D02*
X023613Y019290D01*
X024613Y019290D02*
X024613Y019810D01*
X025613Y019810D02*
X025613Y019290D01*
X025613Y022290D02*
X025613Y022810D01*
X024613Y022810D02*
X024613Y022290D01*
X023613Y022290D02*
X023613Y022810D01*
X022613Y022810D02*
X022613Y022290D01*
X021613Y022290D02*
X021613Y022810D01*
X020613Y022810D02*
X020613Y022290D01*
X019613Y022290D02*
X019613Y022810D01*
X018613Y022810D02*
X018613Y022290D01*
X018613Y024290D02*
X018613Y024810D01*
X019613Y024810D02*
X019613Y024290D01*
X020613Y024290D02*
X020613Y024810D01*
X021613Y024810D02*
X021613Y024290D01*
X022613Y024290D02*
X022613Y024810D01*
X023613Y024810D02*
X023613Y024290D01*
X024613Y024290D02*
X024613Y024810D01*
X025613Y024810D02*
X025613Y024290D01*
X025613Y027290D02*
X025613Y027810D01*
X024613Y027810D02*
X024613Y027290D01*
X023613Y027290D02*
X023613Y027810D01*
X022613Y027810D02*
X022613Y027290D01*
X021613Y027290D02*
X021613Y027810D01*
X020613Y027810D02*
X020613Y027290D01*
X019613Y027290D02*
X019613Y027810D01*
X018613Y027810D02*
X018613Y027290D01*
X029353Y023050D02*
X029873Y023050D01*
X029873Y022050D02*
X029353Y022050D01*
X029353Y021050D02*
X029873Y021050D01*
X029873Y020050D02*
X029353Y020050D01*
X029353Y019050D02*
X029873Y019050D01*
X029873Y018050D02*
X029353Y018050D01*
X029353Y017050D02*
X029873Y017050D01*
X029873Y016050D02*
X029353Y016050D01*
X032353Y016050D02*
X032873Y016050D01*
X032873Y017050D02*
X032353Y017050D01*
X032353Y018050D02*
X032873Y018050D01*
X032873Y019050D02*
X032353Y019050D01*
X032353Y020050D02*
X032873Y020050D01*
X032873Y021050D02*
X032353Y021050D01*
X032353Y022050D02*
X032873Y022050D01*
X032873Y023050D02*
X032353Y023050D01*
X026113Y013310D02*
X026113Y012790D01*
X025113Y012790D02*
X025113Y013310D01*
X024113Y013310D02*
X024113Y012790D01*
X023113Y012790D02*
X023113Y013310D01*
X022113Y013310D02*
X022113Y012790D01*
X021113Y012790D02*
X021113Y013310D01*
X020113Y013310D02*
X020113Y012790D01*
X019113Y012790D02*
X019113Y013310D01*
X019113Y010310D02*
X019113Y009790D01*
X020113Y009790D02*
X020113Y010310D01*
X021113Y010310D02*
X021113Y009790D01*
X022113Y009790D02*
X022113Y010310D01*
X023113Y010310D02*
X023113Y009790D01*
X024113Y009790D02*
X024113Y010310D01*
X025113Y010310D02*
X025113Y009790D01*
X026113Y009790D02*
X026113Y010310D01*
X026113Y007310D02*
X026113Y006790D01*
X025113Y006790D02*
X025113Y007310D01*
X024113Y007310D02*
X024113Y006790D01*
X023113Y006790D02*
X023113Y007310D01*
X022113Y007310D02*
X022113Y006790D01*
X021113Y006790D02*
X021113Y007310D01*
X020113Y007310D02*
X020113Y006790D01*
X019113Y006790D02*
X019113Y007310D01*
X019113Y004310D02*
X019113Y003790D01*
X020113Y003790D02*
X020113Y004310D01*
X021113Y004310D02*
X021113Y003790D01*
X022113Y003790D02*
X022113Y004310D01*
X023113Y004310D02*
X023113Y003790D01*
X024113Y003790D02*
X024113Y004310D01*
X025113Y004310D02*
X025113Y003790D01*
X026113Y003790D02*
X026113Y004310D01*
X029353Y004050D02*
X029873Y004050D01*
X029873Y005050D02*
X029353Y005050D01*
X029353Y006050D02*
X029873Y006050D01*
X029873Y007050D02*
X029353Y007050D01*
X029353Y008050D02*
X029873Y008050D01*
X029873Y009050D02*
X029353Y009050D01*
X029353Y010050D02*
X029873Y010050D01*
X029873Y011050D02*
X029353Y011050D01*
X032353Y011050D02*
X032873Y011050D01*
X032873Y010050D02*
X032353Y010050D01*
X032353Y009050D02*
X032873Y009050D01*
X032873Y008050D02*
X032353Y008050D01*
X032353Y007050D02*
X032873Y007050D01*
X032873Y006050D02*
X032353Y006050D01*
X032353Y005050D02*
X032873Y005050D01*
X032873Y004050D02*
X032353Y004050D01*
D11*
X037613Y005550D03*
X024613Y032050D03*
D12*
X023613Y032050D03*
X022613Y032050D03*
X021613Y032050D03*
X020613Y032050D03*
X019613Y032050D03*
X018613Y032050D03*
X017613Y032050D03*
X016613Y032050D03*
X015613Y032050D03*
X014613Y032050D03*
X013613Y032050D03*
X012613Y032050D03*
X011613Y032050D03*
X010613Y032050D03*
X009613Y032050D03*
X008613Y032050D03*
X008613Y031050D03*
X009613Y031050D03*
X010613Y031050D03*
X011613Y031050D03*
X012613Y031050D03*
X013613Y031050D03*
X014613Y031050D03*
X015613Y031050D03*
X016613Y031050D03*
X017613Y031050D03*
X018613Y031050D03*
X019613Y031050D03*
X020613Y031050D03*
X021613Y031050D03*
X022613Y031050D03*
X023613Y031050D03*
X024613Y031050D03*
X036613Y021550D03*
X036613Y020550D03*
X036613Y019550D03*
X036613Y018550D03*
X036613Y017550D03*
X036613Y016550D03*
X036613Y015550D03*
X036613Y014550D03*
X036613Y013550D03*
X036613Y012550D03*
X036613Y011550D03*
X036613Y010550D03*
X036613Y009550D03*
X036613Y008550D03*
X036613Y007550D03*
X036613Y006550D03*
X036613Y005550D03*
X037613Y006550D03*
X037613Y007550D03*
X037613Y008550D03*
X037613Y009550D03*
X037613Y010550D03*
X037613Y011550D03*
X037613Y012550D03*
X037613Y013550D03*
X037613Y014550D03*
X037613Y015550D03*
X037613Y016550D03*
X037613Y017550D03*
X037613Y018550D03*
X037613Y019550D03*
X037613Y020550D03*
X037613Y021550D03*
D13*
X002852Y015912D02*
X002337Y015912D01*
X002337Y015125D02*
X002852Y015125D01*
X002852Y014337D02*
X002337Y014337D01*
X002337Y013550D02*
X002852Y013550D01*
X002852Y012763D02*
X002337Y012763D01*
X002337Y011975D02*
X002852Y011975D01*
X002852Y011188D02*
X002337Y011188D01*
X002337Y008912D02*
X002852Y008912D01*
X002852Y008125D02*
X002337Y008125D01*
X002337Y007337D02*
X002852Y007337D01*
X002852Y006550D02*
X002337Y006550D01*
X002337Y005763D02*
X002852Y005763D01*
X002852Y004975D02*
X002337Y004975D01*
X002337Y004188D02*
X002852Y004188D01*
D14*
X005113Y001550D03*
X006113Y001550D03*
X007113Y001550D03*
X008113Y001550D03*
X009113Y001550D03*
X010113Y001550D03*
X011113Y001550D03*
X012113Y001550D03*
X013113Y001550D03*
X014113Y001550D03*
X015113Y001550D03*
X017613Y001550D03*
X018613Y001550D03*
X019613Y001550D03*
X020613Y001550D03*
X021613Y001550D03*
X022613Y001550D03*
X023613Y001550D03*
X024613Y001550D03*
X024613Y002550D03*
X025613Y002550D03*
X025613Y001550D03*
X026613Y001550D03*
X027613Y001550D03*
X026613Y002550D03*
X002613Y028050D03*
X002613Y029050D03*
X002613Y030050D03*
D15*
X020113Y016550D03*
X021613Y016550D03*
X024613Y016550D03*
X026113Y016550D03*
D16*
X035613Y024050D03*
X037613Y024050D03*
X037613Y027050D03*
X035613Y027050D03*
D17*
X031613Y025550D03*
X030613Y025550D03*
X027613Y025550D03*
X027613Y026550D03*
X027613Y021550D03*
X027613Y020550D03*
X030613Y013550D03*
X031613Y013550D03*
X016613Y012050D03*
X016613Y011050D03*
X016613Y006050D03*
X016613Y005050D03*
X005113Y005050D03*
X005113Y006050D03*
X005113Y011050D03*
X005113Y012050D03*
X009113Y028550D03*
X010113Y028550D03*
X014113Y028550D03*
X015113Y028550D03*
D18*
X016113Y016550D03*
X012113Y016550D03*
X029113Y029050D03*
X032113Y029050D03*
X035113Y029050D03*
D19*
X036113Y029050D03*
X033113Y029050D03*
X030113Y029050D03*
X016113Y015550D03*
X012113Y015550D03*
D20*
X030113Y031550D03*
X031113Y031550D03*
X031113Y032550D03*
X030113Y032550D03*
X032113Y032550D03*
X033113Y032550D03*
X033113Y031550D03*
X032113Y031550D03*
X034113Y031550D03*
X034113Y032550D03*
D21*
X003608Y025950D02*
X002618Y025950D01*
X002618Y024390D02*
X003608Y024390D01*
X003608Y022830D02*
X002618Y022830D01*
X002618Y021270D02*
X003608Y021270D01*
X003608Y019710D02*
X002618Y019710D01*
X002618Y018150D02*
X003608Y018150D01*
D22*
X027613Y002550D03*
D23*
X005273Y003190D02*
X001913Y003190D01*
X001913Y014470D01*
X002553Y015110D01*
X002595Y015125D01*
X002595Y013550D02*
X002633Y013510D01*
X002953Y013190D01*
X005513Y013190D01*
X008553Y013030D02*
X008613Y013050D01*
X008553Y013030D02*
X008553Y010710D01*
X007433Y010710D01*
X007193Y010470D01*
X007193Y009030D01*
X017513Y009030D01*
X017993Y008550D01*
X018953Y008150D02*
X010473Y008150D01*
X009993Y008630D01*
X008953Y007750D02*
X002953Y007750D01*
X002633Y008070D01*
X002595Y008125D01*
X002595Y007337D02*
X002633Y007270D01*
X002953Y006950D01*
X003513Y006950D01*
X004953Y005510D01*
X009993Y005510D01*
X010313Y006390D02*
X016313Y006390D01*
X016473Y006550D01*
X017593Y006550D01*
X018393Y005750D01*
X020793Y008150D02*
X021753Y009110D01*
X026953Y009110D01*
X026233Y009350D02*
X027273Y010390D01*
X027193Y010870D02*
X023913Y010870D01*
X023113Y010070D01*
X023113Y010050D01*
X022793Y009350D02*
X026233Y009350D01*
X026233Y007750D02*
X015273Y007750D01*
X014633Y007110D01*
X014613Y007050D01*
X010313Y006390D02*
X009673Y007030D01*
X009613Y007050D01*
X008313Y009350D02*
X020473Y009350D01*
X021113Y009990D01*
X021113Y010050D01*
X022113Y010050D02*
X022153Y009990D01*
X022793Y009350D01*
X021433Y007990D02*
X028793Y007990D01*
X029193Y007590D01*
X036073Y007590D01*
X036553Y008070D01*
X036953Y008070D01*
X037033Y007510D02*
X036633Y007510D01*
X036613Y007550D01*
X037033Y007510D02*
X037033Y006390D01*
X036713Y006070D01*
X036473Y006070D01*
X036073Y006470D01*
X032313Y006470D01*
X032073Y006710D01*
X029993Y006710D01*
X029673Y007030D01*
X029613Y007050D01*
X030073Y006470D02*
X026633Y006470D01*
X026393Y006470D01*
X026313Y006390D01*
X024793Y006390D01*
X024153Y007030D01*
X024113Y007050D01*
X023673Y006070D02*
X029593Y006070D01*
X029613Y006050D01*
X030073Y006470D02*
X030313Y006230D01*
X032393Y006230D01*
X032553Y006070D01*
X032613Y006050D01*
X033193Y005590D02*
X023593Y005590D01*
X022153Y007030D01*
X022113Y007050D01*
X021433Y007990D02*
X021273Y008150D01*
X019113Y010050D02*
X019113Y010070D01*
X017833Y011350D01*
X017033Y011510D02*
X011193Y011510D01*
X009673Y013030D01*
X009613Y013050D01*
X010613Y013050D02*
X010633Y013110D01*
X012233Y014710D01*
X017033Y014710D01*
X017033Y015270D02*
X026873Y015270D01*
X029673Y015270D01*
X030073Y015670D01*
X032233Y015670D01*
X032613Y016050D01*
X032313Y016470D02*
X034313Y016470D01*
X035193Y015590D01*
X036553Y015590D01*
X036613Y015550D01*
X036793Y015990D02*
X037193Y015590D01*
X037193Y014550D01*
X037613Y014550D01*
X037753Y013990D02*
X038073Y013670D01*
X038073Y011590D01*
X037673Y011590D01*
X037613Y011550D01*
X037113Y011030D02*
X037593Y010550D01*
X037613Y010550D01*
X037753Y009990D02*
X038073Y009670D01*
X038073Y007590D01*
X037673Y007590D01*
X037613Y007550D01*
X037593Y008550D02*
X037613Y008550D01*
X037593Y008550D02*
X037113Y009030D01*
X035113Y009030D01*
X034633Y009510D01*
X030153Y009510D01*
X029613Y010050D01*
X030233Y010470D02*
X034633Y010470D01*
X035113Y009990D01*
X037753Y009990D01*
X037113Y011030D02*
X035353Y011030D01*
X035193Y011190D01*
X034793Y010790D02*
X035033Y010550D01*
X036613Y010550D01*
X036613Y011550D02*
X036553Y011590D01*
X034473Y011590D01*
X034313Y011750D01*
X034713Y012150D02*
X027673Y012150D01*
X026873Y011350D01*
X019833Y011350D01*
X019673Y011510D01*
X019513Y011830D02*
X019273Y011590D01*
X019273Y011110D01*
X026953Y011110D01*
X027113Y011270D01*
X027433Y011270D01*
X029593Y009110D01*
X029613Y009050D01*
X030073Y008470D02*
X036473Y008470D01*
X036553Y008550D01*
X036613Y008550D01*
X034873Y009750D02*
X032873Y009750D01*
X032633Y009990D01*
X032613Y010050D01*
X032613Y009050D02*
X032793Y008870D01*
X034313Y008870D01*
X034713Y007990D02*
X032633Y007990D01*
X032613Y008050D01*
X032613Y007050D02*
X032953Y006710D01*
X036393Y006710D01*
X036553Y006550D01*
X036613Y006550D01*
X037593Y004950D02*
X038313Y005670D01*
X038313Y016550D01*
X037613Y016550D01*
X037193Y016710D02*
X037513Y017030D01*
X038073Y017030D01*
X038073Y017670D01*
X037753Y017990D01*
X036473Y017990D01*
X036393Y017910D01*
X035113Y017910D01*
X034873Y017670D01*
X035193Y017510D02*
X034873Y017190D01*
X035273Y017110D02*
X037193Y017110D01*
X037593Y017510D01*
X037613Y017550D01*
X037193Y016710D02*
X037193Y015910D01*
X037273Y015910D01*
X037593Y015590D01*
X037613Y015550D01*
X036793Y015990D02*
X035113Y015990D01*
X033593Y017510D01*
X030793Y017510D01*
X030633Y018230D02*
X029913Y017510D01*
X022633Y017510D01*
X021673Y016550D01*
X021613Y016550D01*
X020713Y017670D02*
X008793Y017670D01*
X009193Y018070D02*
X009273Y018150D01*
X019193Y018150D01*
X020553Y019510D01*
X020613Y019550D01*
X020153Y020150D02*
X020233Y020230D01*
X027273Y020230D01*
X027433Y020070D01*
X028793Y020070D01*
X029193Y020470D01*
X036073Y020470D01*
X036473Y020070D01*
X037113Y020070D01*
X037593Y020550D01*
X037613Y020550D01*
X038073Y020710D02*
X037753Y021030D01*
X036553Y021030D01*
X035113Y022470D01*
X027833Y022470D01*
X027193Y021830D01*
X021193Y021830D01*
X022153Y023190D02*
X022233Y023270D01*
X028473Y023270D01*
X028313Y023590D02*
X028393Y023670D01*
X035193Y023670D01*
X036873Y021990D01*
X037753Y021990D01*
X038313Y021430D01*
X038313Y019590D01*
X037673Y019590D01*
X037613Y019550D01*
X037193Y019750D02*
X037433Y019990D01*
X038073Y019990D01*
X038073Y020710D01*
X037193Y019750D02*
X037193Y018550D01*
X037613Y018550D01*
X036613Y018550D02*
X035353Y018550D01*
X035113Y018310D01*
X035193Y017510D02*
X036553Y017510D01*
X036613Y017550D01*
X035273Y017110D02*
X034873Y016710D01*
X034633Y015430D02*
X031033Y015430D01*
X030873Y015270D01*
X031193Y014230D02*
X036313Y014230D01*
X036553Y013990D01*
X037753Y013990D01*
X037113Y013030D02*
X037593Y012550D01*
X037613Y012550D01*
X037113Y013030D02*
X035833Y013030D01*
X035753Y013110D01*
X036613Y012550D02*
X033913Y012550D01*
X033833Y013030D02*
X034633Y013830D01*
X034473Y014550D02*
X035033Y014550D01*
X035113Y014630D01*
X034873Y014870D02*
X035033Y015030D01*
X036073Y015030D01*
X036553Y014550D01*
X036613Y014550D01*
X034873Y014870D02*
X026793Y014870D01*
X026633Y015030D01*
X020713Y015030D01*
X020713Y012630D01*
X020953Y012390D01*
X022873Y012390D01*
X023513Y011750D01*
X022113Y013050D02*
X022153Y013110D01*
X022793Y013750D01*
X029753Y013750D01*
X030473Y013030D01*
X033833Y013030D01*
X034473Y014550D02*
X034393Y014630D01*
X023273Y014630D01*
X022233Y014230D02*
X029993Y014230D01*
X028553Y013350D02*
X029353Y012550D01*
X030793Y012550D01*
X029673Y011030D02*
X029613Y011050D01*
X029673Y011030D02*
X030233Y010470D01*
X030073Y008470D02*
X029673Y008070D01*
X029613Y008050D01*
X027033Y006950D02*
X026233Y007750D01*
X024713Y005110D02*
X025113Y004710D01*
X028873Y004710D01*
X028953Y004630D01*
X029913Y004630D01*
X030313Y004230D01*
X032393Y004230D01*
X032553Y004070D01*
X032613Y004050D01*
X031993Y004470D02*
X037593Y004470D01*
X035593Y002950D02*
X033673Y001030D01*
X023113Y001030D01*
X023113Y001830D01*
X022873Y002070D01*
X022073Y002070D01*
X019613Y001550D02*
X019593Y001590D01*
X019113Y002070D01*
X012953Y002070D01*
X012153Y002870D01*
X007113Y001590D02*
X007113Y001550D01*
X007113Y001590D02*
X006873Y001590D01*
X005273Y003190D01*
X008313Y009350D02*
X007613Y010050D01*
X011613Y013050D02*
X012873Y014310D01*
X018553Y014310D01*
X018713Y014470D01*
X018873Y014470D01*
X019513Y013830D01*
X019513Y011830D01*
X021113Y013050D02*
X021113Y013110D01*
X022233Y014230D01*
X020113Y016550D02*
X017033Y016550D01*
X016633Y016150D01*
X017993Y014070D02*
X018793Y014070D01*
X017993Y014070D02*
X016313Y012390D01*
X012713Y012390D01*
X012233Y011910D01*
X009353Y018390D02*
X009113Y018630D01*
X004073Y018630D01*
X003673Y019030D01*
X002393Y019030D01*
X001993Y019430D01*
X001993Y030950D01*
X006873Y030950D01*
X008393Y032470D01*
X017193Y032470D01*
X017613Y032050D01*
X018153Y032470D02*
X021193Y032470D01*
X021613Y032050D01*
X021033Y031590D02*
X020633Y031990D01*
X020613Y032050D01*
X021033Y031590D02*
X024713Y031590D01*
X025673Y030630D01*
X026393Y030870D02*
X024793Y032470D01*
X023033Y032470D01*
X022613Y032050D01*
X023613Y031050D02*
X023193Y030630D01*
X022553Y030630D01*
X022233Y030310D01*
X023113Y029270D02*
X019833Y029270D01*
X019673Y029110D01*
X019193Y029510D02*
X023913Y029510D01*
X024073Y029350D01*
X023113Y029270D02*
X024073Y028310D01*
X023353Y028470D02*
X021513Y028470D01*
X020633Y027590D01*
X020613Y027550D01*
X020953Y026870D02*
X019433Y026870D01*
X019193Y027110D01*
X019193Y029510D01*
X018233Y029350D02*
X016953Y028070D01*
X010393Y028070D01*
X010233Y027910D01*
X008793Y027750D02*
X008793Y025750D01*
X008153Y025110D01*
X008113Y025050D01*
X008113Y024050D02*
X008153Y023990D01*
X008793Y023990D01*
X009193Y023590D01*
X009753Y023670D02*
X008153Y022070D01*
X008113Y022050D01*
X008553Y021510D02*
X012713Y021510D01*
X013113Y021110D01*
X013113Y021050D01*
X013113Y022050D02*
X013113Y022070D01*
X012393Y022790D01*
X012393Y026950D01*
X012793Y026950D01*
X013833Y027190D02*
X013833Y023830D01*
X013113Y023110D01*
X013113Y023050D01*
X015433Y022710D02*
X015433Y024550D01*
X015593Y024550D01*
X015433Y022710D02*
X016073Y022070D01*
X016113Y022050D01*
X016113Y021050D02*
X016153Y021030D01*
X023593Y021030D01*
X024393Y020630D02*
X016713Y020630D01*
X016153Y020070D01*
X016113Y020050D01*
X016073Y019990D01*
X015673Y019590D01*
X012713Y019590D01*
X012473Y019830D01*
X011273Y019830D01*
X011113Y019990D01*
X011113Y020050D01*
X011513Y020630D02*
X015673Y020630D01*
X016073Y021030D01*
X016113Y021050D01*
X017433Y021430D02*
X025993Y021430D01*
X026393Y021030D01*
X029593Y021030D01*
X029613Y021050D01*
X030233Y021510D02*
X031113Y021510D01*
X031593Y021030D01*
X032313Y021510D02*
X033593Y021510D01*
X032793Y020870D02*
X034713Y020870D01*
X032793Y020870D02*
X032613Y021050D01*
X032313Y021510D02*
X031913Y021910D01*
X029753Y021910D01*
X029613Y022050D01*
X029833Y022870D02*
X031033Y022870D01*
X029833Y022870D02*
X029673Y023030D01*
X029613Y023050D01*
X028313Y023590D02*
X018793Y023590D01*
X017833Y022630D01*
X017753Y023830D02*
X018873Y023830D01*
X019593Y024550D01*
X019613Y024550D01*
X018633Y024550D02*
X018613Y024550D01*
X018633Y024550D02*
X020233Y026150D01*
X026793Y026150D01*
X025193Y027270D02*
X025193Y029350D01*
X025673Y029350D01*
X024633Y030230D02*
X024153Y030710D01*
X024633Y030230D02*
X026713Y030230D01*
X026793Y030310D01*
X025193Y027270D02*
X024793Y026870D01*
X022233Y026870D01*
X021593Y027510D02*
X021613Y027550D01*
X021593Y027510D02*
X020953Y026870D01*
X019673Y027590D02*
X019613Y027550D01*
X019673Y027590D02*
X020953Y028870D01*
X023033Y028870D01*
X023273Y025750D02*
X023993Y025750D01*
X023273Y025750D02*
X023193Y025670D01*
X017433Y030310D02*
X016713Y031030D01*
X016633Y031030D01*
X016613Y031050D01*
X016233Y030470D02*
X015673Y031030D01*
X015613Y031050D01*
X014613Y031050D02*
X014553Y031030D01*
X014153Y030630D01*
X013113Y030630D01*
X012793Y030310D01*
X009613Y031050D02*
X009193Y030630D01*
X007753Y030630D01*
X007433Y030310D01*
X008553Y021510D02*
X008153Y021110D01*
X008113Y021050D01*
X009353Y018390D02*
X018473Y018390D01*
X019593Y019510D01*
X019613Y019550D01*
X020713Y017670D02*
X022553Y019510D01*
X022613Y019550D01*
X023193Y018870D02*
X023353Y018710D01*
X027033Y018710D01*
X027193Y018550D01*
X027913Y018550D01*
X028233Y018870D01*
X028953Y018870D01*
X029193Y018630D01*
X030873Y018630D01*
X031593Y017910D01*
X032313Y018470D02*
X034153Y018470D01*
X032313Y018470D02*
X031913Y018870D01*
X029833Y018870D01*
X029673Y019030D01*
X029613Y019050D01*
X029673Y019990D02*
X029613Y020050D01*
X029673Y019990D02*
X031753Y019990D01*
X029613Y018050D02*
X029593Y018070D01*
X023673Y018070D01*
X021993Y018470D02*
X026953Y018470D01*
X027113Y018310D01*
X028153Y018310D01*
X028313Y018470D01*
X027833Y019510D02*
X027273Y018950D01*
X027833Y019510D02*
X036553Y019510D01*
X036613Y019550D01*
X032313Y016470D02*
X031753Y017030D01*
X035833Y012070D02*
X036953Y012070D01*
X035833Y012070D02*
X035753Y011990D01*
X031273Y005190D02*
X031993Y004470D01*
X021913Y018390D02*
X021993Y018470D01*
X016113Y019050D02*
X016073Y019030D01*
X015673Y018630D01*
X011513Y018630D01*
X011113Y019030D01*
X011113Y019050D01*
X011513Y020630D02*
X011113Y021030D01*
X011113Y021050D01*
X018153Y031510D02*
X018153Y032470D01*
X031513Y024070D02*
X035593Y024070D01*
X035613Y024050D01*
D24*
X033593Y021510D03*
X034713Y020870D03*
X031753Y019990D03*
X031593Y021030D03*
X030233Y021510D03*
X031033Y022870D03*
X031513Y024070D03*
X028473Y023270D03*
X026633Y021430D03*
X024393Y020630D03*
X023593Y021030D03*
X023193Y018870D03*
X023673Y018070D03*
X021913Y018390D03*
X020153Y020150D03*
X021193Y021830D03*
X022153Y023190D03*
X023193Y025670D03*
X023993Y025750D03*
X022233Y026870D03*
X023353Y028470D03*
X023033Y028870D03*
X024073Y029350D03*
X024073Y028310D03*
X025673Y029350D03*
X026793Y030310D03*
X026393Y030870D03*
X025673Y030630D03*
X024153Y030710D03*
X022233Y030310D03*
X019673Y029110D03*
X018233Y029350D03*
X017433Y030310D03*
X016233Y030470D03*
X018153Y031510D03*
X014233Y027670D03*
X013833Y027190D03*
X012793Y026950D03*
X010233Y027910D03*
X008793Y027750D03*
X007033Y029510D03*
X007433Y030310D03*
X006153Y031350D03*
X012793Y030310D03*
X015593Y024550D03*
X017753Y023830D03*
X017833Y022630D03*
X017433Y021430D03*
X016633Y016150D03*
X017033Y015270D03*
X017033Y014710D03*
X018793Y014070D03*
X019673Y011510D03*
X017833Y011350D03*
X017033Y011510D03*
X017993Y008550D03*
X018953Y008150D03*
X020793Y008150D03*
X021273Y008150D03*
X023673Y006070D03*
X024713Y005110D03*
X026633Y006470D03*
X027033Y006950D03*
X026953Y009110D03*
X027273Y010390D03*
X027193Y010870D03*
X028553Y013350D03*
X029993Y014230D03*
X031193Y014230D03*
X030873Y015270D03*
X031593Y016550D03*
X031753Y017030D03*
X031593Y017910D03*
X030793Y017510D03*
X030633Y018230D03*
X028313Y018470D03*
X027273Y018950D03*
X027753Y017110D03*
X026873Y015270D03*
X023273Y014630D03*
X023513Y011750D03*
X018393Y005750D03*
X022073Y002070D03*
X028953Y004630D03*
X031273Y005190D03*
X033193Y005590D03*
X034713Y007990D03*
X034313Y008870D03*
X034873Y009750D03*
X034793Y010790D03*
X035193Y011190D03*
X035753Y011990D03*
X034713Y012150D03*
X034313Y011750D03*
X033913Y012550D03*
X034633Y013830D03*
X035113Y014630D03*
X034633Y015430D03*
X034873Y016710D03*
X034873Y017190D03*
X034873Y017670D03*
X035113Y018310D03*
X034153Y018470D03*
X035753Y013110D03*
X036953Y012070D03*
X036953Y008070D03*
X037593Y004950D03*
X037593Y004470D03*
X037273Y003510D03*
X035593Y002950D03*
X031673Y011750D03*
X030793Y012550D03*
X026793Y026150D03*
X012233Y011910D03*
X009993Y008630D03*
X008953Y007750D03*
X009993Y005510D03*
X012153Y002870D03*
X005513Y013190D03*
X008793Y017670D03*
X009193Y018070D03*
X009193Y023590D03*
X009753Y023670D03*
D25*
X011113Y026050D02*
X011193Y026150D01*
X012633Y027590D01*
X014153Y027590D01*
X014233Y027670D01*
X015753Y026150D01*
X016073Y026150D01*
X016113Y026050D01*
X016153Y026070D01*
X017593Y027510D01*
X018553Y027510D01*
X018613Y027550D01*
X018633Y027430D01*
X018633Y026470D01*
X026473Y026470D01*
X026553Y026550D01*
X027613Y026550D01*
X027673Y026550D01*
X028153Y026070D01*
X031113Y026070D01*
X031593Y025590D01*
X031613Y025550D01*
X031193Y025030D02*
X030713Y025510D01*
X030613Y025550D01*
X030553Y025590D01*
X027673Y025590D01*
X027613Y025550D01*
X027513Y025510D01*
X026553Y025510D01*
X025673Y024630D01*
X025613Y024550D01*
X024613Y024550D01*
X027613Y021550D02*
X027593Y021510D01*
X027513Y021430D01*
X026633Y021430D01*
X025593Y019590D02*
X024633Y019590D01*
X024613Y019550D01*
X025593Y019590D02*
X025613Y019550D01*
X027753Y017110D02*
X029593Y017110D01*
X029613Y017050D01*
X031593Y016550D02*
X026113Y016550D01*
X024613Y016550D02*
X024553Y016550D01*
X023673Y015670D01*
X016153Y015670D01*
X016113Y015550D01*
X016073Y015590D01*
X012153Y015590D01*
X012113Y015550D01*
X012073Y015670D01*
X005593Y015670D01*
X003113Y018150D01*
X003113Y019710D02*
X003113Y019750D01*
X006073Y019750D01*
X006073Y019830D01*
X003113Y022790D01*
X003113Y022830D01*
X003193Y022870D01*
X004313Y022870D01*
X004313Y029110D01*
X003513Y029110D01*
X002633Y029990D01*
X002613Y030050D01*
X004313Y029110D02*
X010553Y029110D01*
X010633Y029030D01*
X010153Y028550D01*
X010113Y028550D01*
X010633Y029030D02*
X010713Y029110D01*
X014553Y029110D01*
X015113Y028550D01*
X011113Y026070D02*
X011113Y026050D01*
X011113Y026070D02*
X009113Y028070D01*
X009113Y028550D01*
X008113Y020050D02*
X008073Y019990D01*
X007833Y019750D01*
X006073Y019750D01*
X008113Y019050D02*
X008153Y019110D01*
X008553Y019510D01*
X012393Y019510D01*
X012793Y019110D01*
X013113Y019110D01*
X013113Y019050D01*
X012113Y016550D02*
X016113Y016550D01*
X019113Y013050D02*
X019113Y013030D01*
X018153Y012070D01*
X016633Y012070D01*
X016613Y012050D01*
X016613Y011050D02*
X016553Y011030D01*
X015593Y010070D01*
X014633Y010070D01*
X014613Y010050D01*
X016553Y006070D02*
X016613Y006050D01*
X016633Y005990D01*
X017273Y005350D01*
X019113Y005350D01*
X019113Y007050D01*
X016553Y006070D02*
X006793Y006070D01*
X006713Y006150D01*
X007613Y007050D01*
X006713Y006150D02*
X006633Y006070D01*
X005113Y006070D01*
X005113Y006050D01*
X005113Y005050D02*
X005113Y005030D01*
X006073Y004070D01*
X007593Y004070D01*
X007613Y004050D01*
X009613Y004050D02*
X009673Y004070D01*
X010393Y004790D01*
X010793Y004790D01*
X011513Y004070D01*
X011613Y004050D01*
X011673Y004070D01*
X012393Y004790D01*
X012873Y004790D01*
X013613Y004050D01*
X014613Y004050D02*
X014633Y004070D01*
X015593Y004070D01*
X016553Y005030D01*
X016613Y005050D01*
X016713Y005030D01*
X024153Y005030D01*
X025033Y004150D01*
X025113Y004050D01*
X025113Y004070D01*
X026073Y004070D01*
X026113Y004050D01*
X026153Y004070D01*
X029593Y004070D01*
X029613Y004050D01*
X026393Y003350D02*
X026233Y003190D01*
X020153Y003190D01*
X020073Y003110D01*
X021593Y001590D01*
X021613Y001550D01*
X020073Y003110D02*
X019913Y003270D01*
X005593Y003270D01*
X003113Y005750D01*
X002633Y005750D01*
X002595Y005763D01*
X002595Y008912D02*
X002633Y008950D01*
X004713Y011030D01*
X005113Y011030D01*
X005113Y011050D01*
X005113Y012050D02*
X005113Y012070D01*
X006633Y012070D01*
X007613Y013050D01*
X025113Y010070D02*
X025113Y010050D01*
X025113Y010070D02*
X026073Y010070D01*
X026113Y010050D01*
X031673Y011750D02*
X031913Y011750D01*
X032613Y011050D01*
X037273Y003510D02*
X037113Y003350D01*
X026393Y003350D01*
X031193Y025030D02*
X033593Y025030D01*
X035613Y027050D01*
D26*
X035513Y028470D02*
X032713Y028470D01*
X032633Y028550D01*
X032553Y028470D01*
X030713Y028470D01*
X030153Y029030D01*
X030113Y029050D01*
X029993Y029110D01*
X029273Y029830D01*
X007353Y029830D01*
X007033Y029510D01*
X006153Y031350D02*
X007593Y032790D01*
X028873Y032790D01*
X030113Y031550D01*
X033113Y029050D02*
X033113Y029030D01*
X032633Y028550D01*
X035513Y028470D02*
X036073Y029030D01*
X036113Y029050D01*
M02*
