%
M48
M72
T01C0.0240
T02C0.0276
T03C0.0315
T04C0.0320
T05C0.0360
T06C0.0400
T07C0.0630
T08C0.0660
T09C0.1300
%
T01
X8953Y7750
X9993Y8630
X9993Y5510
X12153Y2870
X18393Y5750
X18953Y8150
X17993Y8550
X20793Y8150
X21273Y8150
X23673Y6070
X24713Y5110
X26633Y6470
X27033Y6950
X26953Y9110
X27273Y10390
X27193Y10870
X28553Y13350
X29993Y14230
X31193Y14230
X30873Y15270
X31593Y16550
X31753Y17030
X31593Y17910
X30793Y17510
X30633Y18230
X31753Y19990
X31593Y21030
X30233Y21510
X31033Y22870
X31513Y24070
X28473Y23270
X26633Y21430
X24393Y20630
X23593Y21030
X23193Y18870
X23673Y18070
X21913Y18390
X20153Y20150
X21193Y21830
X22153Y23190
X23193Y25670
X23993Y25750
X22233Y26870
X23353Y28470
X23033Y28870
X24073Y29350
X24073Y28310
X25673Y29350
X26793Y30310
X26393Y30870
X25673Y30630
X24153Y30710
X22233Y30310
X19673Y29110
X18233Y29350
X17433Y30310
X16233Y30470
X18153Y31510
X14233Y27670
X13833Y27190
X12793Y26950
X10233Y27910
X8793Y27750
X7033Y29510
X7433Y30310
X6153Y31350
X12793Y30310
X15593Y24550
X17753Y23830
X17833Y22630
X17433Y21430
X16633Y16150
X17033Y15270
X17033Y14710
X18793Y14070
X19673Y11510
X17833Y11350
X17033Y11510
X12233Y11910
X8793Y17670
X9193Y18070
X5513Y13190
X9193Y23590
X9753Y23670
X23273Y14630
X23513Y11750
X26873Y15270
X27753Y17110
X28313Y18470
X27273Y18950
X33593Y21510
X34713Y20870
X34153Y18470
X35113Y18310
X34873Y17670
X34873Y17190
X34873Y16710
X34633Y15430
X35113Y14630
X34633Y13830
X35753Y13110
X35753Y11990
X35193Y11190
X34793Y10790
X34313Y11750
X34713Y12150
X33913Y12550
X31673Y11750
X30793Y12550
X34873Y9750
X34313Y8870
X34713Y7990
X36953Y8070
X37593Y4950
X37593Y4470
X37273Y3510
X35593Y2950
X33193Y5590
X31273Y5190
X28953Y4630
X22073Y2070
X36953Y12070
X26793Y26150
T02
X29113Y29050
X30113Y29050
X32113Y29050
X33113Y29050
X35113Y29050
X36113Y29050
X16113Y16550
X16113Y15550
X12113Y15550
X12113Y16550
T03
X2595Y15912
X2595Y15125
X2595Y14337
X2595Y13550
X2595Y12763
X2595Y11975
X2595Y11188
X2595Y8912
X2595Y8125
X2595Y7337
X2595Y6550
X2595Y5763
X2595Y4975
X2595Y4188
T04
X5113Y5050
X5113Y6050
X7613Y7050
X8613Y7050
X9613Y7050
X10613Y7050
X11613Y7050
X12613Y7050
X13613Y7050
X14613Y7050
X16613Y6050
X16613Y5050
X14613Y4050
X13613Y4050
X12613Y4050
X11613Y4050
X10613Y4050
X9613Y4050
X8613Y4050
X7613Y4050
X7613Y10050
X8613Y10050
X9613Y10050
X10613Y10050
X11613Y10050
X12613Y10050
X13613Y10050
X14613Y10050
X16613Y11050
X16613Y12050
X14613Y13050
X13613Y13050
X12613Y13050
X11613Y13050
X10613Y13050
X9613Y13050
X8613Y13050
X7613Y13050
X5113Y12050
X5113Y11050
X8113Y19050
X8113Y20050
X8113Y21050
X8113Y22050
X8113Y23050
X8113Y24050
X8113Y25050
X8113Y26050
X9113Y28550
X10113Y28550
X11113Y26050
X11113Y25050
X11113Y24050
X11113Y23050
X11113Y22050
X11113Y21050
X11113Y20050
X11113Y19050
X13113Y19050
X13113Y20050
X13113Y21050
X13113Y22050
X13113Y23050
X13113Y24050
X13113Y25050
X13113Y26050
X14113Y28550
X15113Y28550
X16113Y26050
X16113Y25050
X16113Y24050
X16113Y23050
X16113Y22050
X16113Y21050
X16113Y20050
X16113Y19050
X18613Y19550
X19613Y19550
X20613Y19550
X21613Y19550
X22613Y19550
X23613Y19550
X24613Y19550
X25613Y19550
X27613Y20550
X27613Y21550
X29613Y21050
X29613Y20050
X29613Y19050
X29613Y18050
X29613Y17050
X29613Y16050
X30613Y13550
X31613Y13550
X32613Y16050
X32613Y17050
X32613Y18050
X32613Y19050
X32613Y20050
X32613Y21050
X32613Y22050
X32613Y23050
X31613Y25550
X30613Y25550
X29613Y23050
X29613Y22050
X25613Y22550
X24613Y22550
X23613Y22550
X22613Y22550
X21613Y22550
X20613Y22550
X19613Y22550
X18613Y22550
X18613Y24550
X19613Y24550
X20613Y24550
X21613Y24550
X22613Y24550
X23613Y24550
X24613Y24550
X25613Y24550
X27613Y25550
X27613Y26550
X25613Y27550
X24613Y27550
X23613Y27550
X22613Y27550
X21613Y27550
X20613Y27550
X19613Y27550
X18613Y27550
X19113Y13050
X20113Y13050
X21113Y13050
X22113Y13050
X23113Y13050
X24113Y13050
X25113Y13050
X26113Y13050
X26113Y10050
X25113Y10050
X24113Y10050
X23113Y10050
X22113Y10050
X21113Y10050
X20113Y10050
X19113Y10050
X19113Y7050
X20113Y7050
X21113Y7050
X22113Y7050
X23113Y7050
X24113Y7050
X25113Y7050
X26113Y7050
X26113Y4050
X25113Y4050
X24113Y4050
X23113Y4050
X22113Y4050
X21113Y4050
X20113Y4050
X19113Y4050
X29613Y4050
X29613Y5050
X29613Y6050
X29613Y7050
X29613Y8050
X29613Y9050
X29613Y10050
X29613Y11050
X32613Y11050
X32613Y10050
X32613Y9050
X32613Y8050
X32613Y7050
X32613Y6050
X32613Y5050
X32613Y4050
T05
X36613Y5550
X36613Y6550
X36613Y7550
X36613Y8550
X36613Y9550
X36613Y10550
X36613Y11550
X36613Y12550
X36613Y13550
X36613Y14550
X36613Y15550
X36613Y16550
X36613Y17550
X36613Y18550
X36613Y19550
X36613Y20550
X36613Y21550
X37613Y21550
X37613Y20550
X37613Y19550
X37613Y18550
X37613Y17550
X37613Y16550
X37613Y15550
X37613Y14550
X37613Y13550
X37613Y12550
X37613Y11550
X37613Y10550
X37613Y9550
X37613Y8550
X37613Y7550
X37613Y6550
X37613Y5550
X24613Y31050
X23613Y31050
X22613Y31050
X21613Y31050
X20613Y31050
X19613Y31050
X18613Y31050
X17613Y31050
X16613Y31050
X15613Y31050
X14613Y31050
X13613Y31050
X12613Y31050
X11613Y31050
X10613Y31050
X9613Y31050
X8613Y31050
X8613Y32050
X9613Y32050
X10613Y32050
X11613Y32050
X12613Y32050
X13613Y32050
X14613Y32050
X15613Y32050
X16613Y32050
X17613Y32050
X18613Y32050
X19613Y32050
X20613Y32050
X21613Y32050
X22613Y32050
X23613Y32050
X24613Y32050
T06
X30113Y31550
X31113Y31550
X31113Y32550
X30113Y32550
X32113Y32550
X33113Y32550
X33113Y31550
X32113Y31550
X34113Y31550
X34113Y32550
X35613Y27050
X37613Y27050
X37613Y24050
X35613Y24050
X27613Y2550
X26613Y2550
X25613Y2550
X24613Y2550
X24613Y1550
X23613Y1550
X22613Y1550
X21613Y1550
X20613Y1550
X19613Y1550
X18613Y1550
X17613Y1550
X15113Y1550
X14113Y1550
X13113Y1550
X12113Y1550
X11113Y1550
X10113Y1550
X9113Y1550
X8113Y1550
X7113Y1550
X6113Y1550
X5113Y1550
X25613Y1550
X26613Y1550
X27613Y1550
X2613Y28050
X2613Y29050
X2613Y30050
T07
X20113Y16550
X21613Y16550
X24613Y16550
X26113Y16550
T08
X3113Y18150
X3113Y19710
X3113Y21270
X3113Y22830
X3113Y24390
X3113Y25950
T09
X2613Y2050
X2613Y32050
X37613Y32050
X37613Y2050
M30
