G75*
%MOIN*%
%OFA0B0*%
%FSLAX24Y24*%
%IPPOS*%
%LPD*%
%AMOC8*
5,1,8,0,0,1.08239X$1,22.5*
%
%ADD10C,0.0000*%
%ADD11C,0.0520*%
%ADD12C,0.0560*%
%ADD13OC8,0.0560*%
%ADD14C,0.0515*%
%ADD15C,0.0740*%
%ADD16C,0.0945*%
%ADD17C,0.0800*%
%ADD18OC8,0.0630*%
%ADD19C,0.0650*%
%ADD20R,0.0650X0.0650*%
%ADD21OC8,0.0740*%
%ADD22C,0.0990*%
%ADD23R,0.0740X0.0740*%
%ADD24C,0.0100*%
%ADD25C,0.0400*%
%ADD26C,0.0240*%
%ADD27C,0.0320*%
D10*
X001113Y000550D02*
X001113Y033546D01*
X038983Y033546D01*
X038983Y000550D01*
X001113Y000550D01*
X001963Y002050D02*
X001965Y002100D01*
X001971Y002150D01*
X001981Y002200D01*
X001994Y002248D01*
X002011Y002296D01*
X002032Y002342D01*
X002056Y002386D01*
X002084Y002428D01*
X002115Y002468D01*
X002149Y002505D01*
X002186Y002540D01*
X002225Y002571D01*
X002266Y002600D01*
X002310Y002625D01*
X002356Y002647D01*
X002403Y002665D01*
X002451Y002679D01*
X002500Y002690D01*
X002550Y002697D01*
X002600Y002700D01*
X002651Y002699D01*
X002701Y002694D01*
X002751Y002685D01*
X002799Y002673D01*
X002847Y002656D01*
X002893Y002636D01*
X002938Y002613D01*
X002981Y002586D01*
X003021Y002556D01*
X003059Y002523D01*
X003094Y002487D01*
X003127Y002448D01*
X003156Y002407D01*
X003182Y002364D01*
X003205Y002319D01*
X003224Y002272D01*
X003239Y002224D01*
X003251Y002175D01*
X003259Y002125D01*
X003263Y002075D01*
X003263Y002025D01*
X003259Y001975D01*
X003251Y001925D01*
X003239Y001876D01*
X003224Y001828D01*
X003205Y001781D01*
X003182Y001736D01*
X003156Y001693D01*
X003127Y001652D01*
X003094Y001613D01*
X003059Y001577D01*
X003021Y001544D01*
X002981Y001514D01*
X002938Y001487D01*
X002893Y001464D01*
X002847Y001444D01*
X002799Y001427D01*
X002751Y001415D01*
X002701Y001406D01*
X002651Y001401D01*
X002600Y001400D01*
X002550Y001403D01*
X002500Y001410D01*
X002451Y001421D01*
X002403Y001435D01*
X002356Y001453D01*
X002310Y001475D01*
X002266Y001500D01*
X002225Y001529D01*
X002186Y001560D01*
X002149Y001595D01*
X002115Y001632D01*
X002084Y001672D01*
X002056Y001714D01*
X002032Y001758D01*
X002011Y001804D01*
X001994Y001852D01*
X001981Y001900D01*
X001971Y001950D01*
X001965Y002000D01*
X001963Y002050D01*
X001963Y032050D02*
X001965Y032100D01*
X001971Y032150D01*
X001981Y032200D01*
X001994Y032248D01*
X002011Y032296D01*
X002032Y032342D01*
X002056Y032386D01*
X002084Y032428D01*
X002115Y032468D01*
X002149Y032505D01*
X002186Y032540D01*
X002225Y032571D01*
X002266Y032600D01*
X002310Y032625D01*
X002356Y032647D01*
X002403Y032665D01*
X002451Y032679D01*
X002500Y032690D01*
X002550Y032697D01*
X002600Y032700D01*
X002651Y032699D01*
X002701Y032694D01*
X002751Y032685D01*
X002799Y032673D01*
X002847Y032656D01*
X002893Y032636D01*
X002938Y032613D01*
X002981Y032586D01*
X003021Y032556D01*
X003059Y032523D01*
X003094Y032487D01*
X003127Y032448D01*
X003156Y032407D01*
X003182Y032364D01*
X003205Y032319D01*
X003224Y032272D01*
X003239Y032224D01*
X003251Y032175D01*
X003259Y032125D01*
X003263Y032075D01*
X003263Y032025D01*
X003259Y031975D01*
X003251Y031925D01*
X003239Y031876D01*
X003224Y031828D01*
X003205Y031781D01*
X003182Y031736D01*
X003156Y031693D01*
X003127Y031652D01*
X003094Y031613D01*
X003059Y031577D01*
X003021Y031544D01*
X002981Y031514D01*
X002938Y031487D01*
X002893Y031464D01*
X002847Y031444D01*
X002799Y031427D01*
X002751Y031415D01*
X002701Y031406D01*
X002651Y031401D01*
X002600Y031400D01*
X002550Y031403D01*
X002500Y031410D01*
X002451Y031421D01*
X002403Y031435D01*
X002356Y031453D01*
X002310Y031475D01*
X002266Y031500D01*
X002225Y031529D01*
X002186Y031560D01*
X002149Y031595D01*
X002115Y031632D01*
X002084Y031672D01*
X002056Y031714D01*
X002032Y031758D01*
X002011Y031804D01*
X001994Y031852D01*
X001981Y031900D01*
X001971Y031950D01*
X001965Y032000D01*
X001963Y032050D01*
X036963Y032050D02*
X036965Y032100D01*
X036971Y032150D01*
X036981Y032200D01*
X036994Y032248D01*
X037011Y032296D01*
X037032Y032342D01*
X037056Y032386D01*
X037084Y032428D01*
X037115Y032468D01*
X037149Y032505D01*
X037186Y032540D01*
X037225Y032571D01*
X037266Y032600D01*
X037310Y032625D01*
X037356Y032647D01*
X037403Y032665D01*
X037451Y032679D01*
X037500Y032690D01*
X037550Y032697D01*
X037600Y032700D01*
X037651Y032699D01*
X037701Y032694D01*
X037751Y032685D01*
X037799Y032673D01*
X037847Y032656D01*
X037893Y032636D01*
X037938Y032613D01*
X037981Y032586D01*
X038021Y032556D01*
X038059Y032523D01*
X038094Y032487D01*
X038127Y032448D01*
X038156Y032407D01*
X038182Y032364D01*
X038205Y032319D01*
X038224Y032272D01*
X038239Y032224D01*
X038251Y032175D01*
X038259Y032125D01*
X038263Y032075D01*
X038263Y032025D01*
X038259Y031975D01*
X038251Y031925D01*
X038239Y031876D01*
X038224Y031828D01*
X038205Y031781D01*
X038182Y031736D01*
X038156Y031693D01*
X038127Y031652D01*
X038094Y031613D01*
X038059Y031577D01*
X038021Y031544D01*
X037981Y031514D01*
X037938Y031487D01*
X037893Y031464D01*
X037847Y031444D01*
X037799Y031427D01*
X037751Y031415D01*
X037701Y031406D01*
X037651Y031401D01*
X037600Y031400D01*
X037550Y031403D01*
X037500Y031410D01*
X037451Y031421D01*
X037403Y031435D01*
X037356Y031453D01*
X037310Y031475D01*
X037266Y031500D01*
X037225Y031529D01*
X037186Y031560D01*
X037149Y031595D01*
X037115Y031632D01*
X037084Y031672D01*
X037056Y031714D01*
X037032Y031758D01*
X037011Y031804D01*
X036994Y031852D01*
X036981Y031900D01*
X036971Y031950D01*
X036965Y032000D01*
X036963Y032050D01*
X036963Y002050D02*
X036965Y002100D01*
X036971Y002150D01*
X036981Y002200D01*
X036994Y002248D01*
X037011Y002296D01*
X037032Y002342D01*
X037056Y002386D01*
X037084Y002428D01*
X037115Y002468D01*
X037149Y002505D01*
X037186Y002540D01*
X037225Y002571D01*
X037266Y002600D01*
X037310Y002625D01*
X037356Y002647D01*
X037403Y002665D01*
X037451Y002679D01*
X037500Y002690D01*
X037550Y002697D01*
X037600Y002700D01*
X037651Y002699D01*
X037701Y002694D01*
X037751Y002685D01*
X037799Y002673D01*
X037847Y002656D01*
X037893Y002636D01*
X037938Y002613D01*
X037981Y002586D01*
X038021Y002556D01*
X038059Y002523D01*
X038094Y002487D01*
X038127Y002448D01*
X038156Y002407D01*
X038182Y002364D01*
X038205Y002319D01*
X038224Y002272D01*
X038239Y002224D01*
X038251Y002175D01*
X038259Y002125D01*
X038263Y002075D01*
X038263Y002025D01*
X038259Y001975D01*
X038251Y001925D01*
X038239Y001876D01*
X038224Y001828D01*
X038205Y001781D01*
X038182Y001736D01*
X038156Y001693D01*
X038127Y001652D01*
X038094Y001613D01*
X038059Y001577D01*
X038021Y001544D01*
X037981Y001514D01*
X037938Y001487D01*
X037893Y001464D01*
X037847Y001444D01*
X037799Y001427D01*
X037751Y001415D01*
X037701Y001406D01*
X037651Y001401D01*
X037600Y001400D01*
X037550Y001403D01*
X037500Y001410D01*
X037451Y001421D01*
X037403Y001435D01*
X037356Y001453D01*
X037310Y001475D01*
X037266Y001500D01*
X037225Y001529D01*
X037186Y001560D01*
X037149Y001595D01*
X037115Y001632D01*
X037084Y001672D01*
X037056Y001714D01*
X037032Y001758D01*
X037011Y001804D01*
X036994Y001852D01*
X036981Y001900D01*
X036971Y001950D01*
X036965Y002000D01*
X036963Y002050D01*
D11*
X032873Y004050D02*
X032353Y004050D01*
X032353Y005050D02*
X032873Y005050D01*
X032873Y006050D02*
X032353Y006050D01*
X032353Y007050D02*
X032873Y007050D01*
X032873Y008050D02*
X032353Y008050D01*
X032353Y009050D02*
X032873Y009050D01*
X032873Y010050D02*
X032353Y010050D01*
X032353Y011050D02*
X032873Y011050D01*
X029873Y011050D02*
X029353Y011050D01*
X029353Y010050D02*
X029873Y010050D01*
X029873Y009050D02*
X029353Y009050D01*
X029353Y008050D02*
X029873Y008050D01*
X029873Y007050D02*
X029353Y007050D01*
X029353Y006050D02*
X029873Y006050D01*
X029873Y005050D02*
X029353Y005050D01*
X029353Y004050D02*
X029873Y004050D01*
X026113Y003790D02*
X026113Y004310D01*
X025113Y004310D02*
X025113Y003790D01*
X024113Y003790D02*
X024113Y004310D01*
X023113Y004310D02*
X023113Y003790D01*
X022113Y003790D02*
X022113Y004310D01*
X021113Y004310D02*
X021113Y003790D01*
X020113Y003790D02*
X020113Y004310D01*
X019113Y004310D02*
X019113Y003790D01*
X019113Y006790D02*
X019113Y007310D01*
X020113Y007310D02*
X020113Y006790D01*
X021113Y006790D02*
X021113Y007310D01*
X022113Y007310D02*
X022113Y006790D01*
X023113Y006790D02*
X023113Y007310D01*
X024113Y007310D02*
X024113Y006790D01*
X025113Y006790D02*
X025113Y007310D01*
X026113Y007310D02*
X026113Y006790D01*
X026113Y009790D02*
X026113Y010310D01*
X025113Y010310D02*
X025113Y009790D01*
X024113Y009790D02*
X024113Y010310D01*
X023113Y010310D02*
X023113Y009790D01*
X022113Y009790D02*
X022113Y010310D01*
X021113Y010310D02*
X021113Y009790D01*
X020113Y009790D02*
X020113Y010310D01*
X019113Y010310D02*
X019113Y009790D01*
X019113Y012790D02*
X019113Y013310D01*
X020113Y013310D02*
X020113Y012790D01*
X021113Y012790D02*
X021113Y013310D01*
X022113Y013310D02*
X022113Y012790D01*
X023113Y012790D02*
X023113Y013310D01*
X024113Y013310D02*
X024113Y012790D01*
X025113Y012790D02*
X025113Y013310D01*
X026113Y013310D02*
X026113Y012790D01*
X029353Y016050D02*
X029873Y016050D01*
X029873Y017050D02*
X029353Y017050D01*
X029353Y018050D02*
X029873Y018050D01*
X029873Y019050D02*
X029353Y019050D01*
X029353Y020050D02*
X029873Y020050D01*
X029873Y021050D02*
X029353Y021050D01*
X029353Y022050D02*
X029873Y022050D01*
X029873Y023050D02*
X029353Y023050D01*
X032353Y023050D02*
X032873Y023050D01*
X032873Y022050D02*
X032353Y022050D01*
X032353Y021050D02*
X032873Y021050D01*
X032873Y020050D02*
X032353Y020050D01*
X032353Y019050D02*
X032873Y019050D01*
X032873Y018050D02*
X032353Y018050D01*
X032353Y017050D02*
X032873Y017050D01*
X032873Y016050D02*
X032353Y016050D01*
X025613Y019290D02*
X025613Y019810D01*
X024613Y019810D02*
X024613Y019290D01*
X023613Y019290D02*
X023613Y019810D01*
X022613Y019810D02*
X022613Y019290D01*
X021613Y019290D02*
X021613Y019810D01*
X020613Y019810D02*
X020613Y019290D01*
X019613Y019290D02*
X019613Y019810D01*
X018613Y019810D02*
X018613Y019290D01*
X016373Y019050D02*
X015853Y019050D01*
X015853Y020050D02*
X016373Y020050D01*
X016373Y021050D02*
X015853Y021050D01*
X015853Y022050D02*
X016373Y022050D01*
X016373Y023050D02*
X015853Y023050D01*
X015853Y024050D02*
X016373Y024050D01*
X016373Y025050D02*
X015853Y025050D01*
X015853Y026050D02*
X016373Y026050D01*
X018613Y024810D02*
X018613Y024290D01*
X019613Y024290D02*
X019613Y024810D01*
X020613Y024810D02*
X020613Y024290D01*
X021613Y024290D02*
X021613Y024810D01*
X022613Y024810D02*
X022613Y024290D01*
X023613Y024290D02*
X023613Y024810D01*
X024613Y024810D02*
X024613Y024290D01*
X025613Y024290D02*
X025613Y024810D01*
X025613Y022810D02*
X025613Y022290D01*
X024613Y022290D02*
X024613Y022810D01*
X023613Y022810D02*
X023613Y022290D01*
X022613Y022290D02*
X022613Y022810D01*
X021613Y022810D02*
X021613Y022290D01*
X020613Y022290D02*
X020613Y022810D01*
X019613Y022810D02*
X019613Y022290D01*
X018613Y022290D02*
X018613Y022810D01*
X013373Y023050D02*
X012853Y023050D01*
X012853Y022050D02*
X013373Y022050D01*
X013373Y021050D02*
X012853Y021050D01*
X012853Y020050D02*
X013373Y020050D01*
X013373Y019050D02*
X012853Y019050D01*
X011373Y019050D02*
X010853Y019050D01*
X010853Y020050D02*
X011373Y020050D01*
X011373Y021050D02*
X010853Y021050D01*
X010853Y022050D02*
X011373Y022050D01*
X011373Y023050D02*
X010853Y023050D01*
X010853Y024050D02*
X011373Y024050D01*
X011373Y025050D02*
X010853Y025050D01*
X010853Y026050D02*
X011373Y026050D01*
X012853Y026050D02*
X013373Y026050D01*
X013373Y025050D02*
X012853Y025050D01*
X012853Y024050D02*
X013373Y024050D01*
X008373Y024050D02*
X007853Y024050D01*
X007853Y023050D02*
X008373Y023050D01*
X008373Y022050D02*
X007853Y022050D01*
X007853Y021050D02*
X008373Y021050D01*
X008373Y020050D02*
X007853Y020050D01*
X007853Y019050D02*
X008373Y019050D01*
X008613Y013310D02*
X008613Y012790D01*
X009613Y012790D02*
X009613Y013310D01*
X010613Y013310D02*
X010613Y012790D01*
X011613Y012790D02*
X011613Y013310D01*
X012613Y013310D02*
X012613Y012790D01*
X013613Y012790D02*
X013613Y013310D01*
X014613Y013310D02*
X014613Y012790D01*
X014613Y010310D02*
X014613Y009790D01*
X013613Y009790D02*
X013613Y010310D01*
X012613Y010310D02*
X012613Y009790D01*
X011613Y009790D02*
X011613Y010310D01*
X010613Y010310D02*
X010613Y009790D01*
X009613Y009790D02*
X009613Y010310D01*
X008613Y010310D02*
X008613Y009790D01*
X007613Y009790D02*
X007613Y010310D01*
X007613Y012790D02*
X007613Y013310D01*
X007613Y007310D02*
X007613Y006790D01*
X008613Y006790D02*
X008613Y007310D01*
X009613Y007310D02*
X009613Y006790D01*
X010613Y006790D02*
X010613Y007310D01*
X011613Y007310D02*
X011613Y006790D01*
X012613Y006790D02*
X012613Y007310D01*
X013613Y007310D02*
X013613Y006790D01*
X014613Y006790D02*
X014613Y007310D01*
X014613Y004310D02*
X014613Y003790D01*
X013613Y003790D02*
X013613Y004310D01*
X012613Y004310D02*
X012613Y003790D01*
X011613Y003790D02*
X011613Y004310D01*
X010613Y004310D02*
X010613Y003790D01*
X009613Y003790D02*
X009613Y004310D01*
X008613Y004310D02*
X008613Y003790D01*
X007613Y003790D02*
X007613Y004310D01*
X007853Y025050D02*
X008373Y025050D01*
X008373Y026050D02*
X007853Y026050D01*
X018613Y027290D02*
X018613Y027810D01*
X019613Y027810D02*
X019613Y027290D01*
X020613Y027290D02*
X020613Y027810D01*
X021613Y027810D02*
X021613Y027290D01*
X022613Y027290D02*
X022613Y027810D01*
X023613Y027810D02*
X023613Y027290D01*
X024613Y027290D02*
X024613Y027810D01*
X025613Y027810D02*
X025613Y027290D01*
D12*
X024613Y032050D03*
X037613Y005550D03*
D13*
X036613Y005550D03*
X036613Y006550D03*
X036613Y007550D03*
X036613Y008550D03*
X036613Y009550D03*
X036613Y010550D03*
X036613Y011550D03*
X036613Y012550D03*
X036613Y013550D03*
X036613Y014550D03*
X036613Y015550D03*
X036613Y016550D03*
X036613Y017550D03*
X036613Y018550D03*
X036613Y019550D03*
X036613Y020550D03*
X036613Y021550D03*
X037613Y021550D03*
X037613Y020550D03*
X037613Y019550D03*
X037613Y018550D03*
X037613Y017550D03*
X037613Y016550D03*
X037613Y015550D03*
X037613Y014550D03*
X037613Y013550D03*
X037613Y012550D03*
X037613Y011550D03*
X037613Y010550D03*
X037613Y009550D03*
X037613Y008550D03*
X037613Y007550D03*
X037613Y006550D03*
X024613Y031050D03*
X023613Y031050D03*
X022613Y031050D03*
X021613Y031050D03*
X020613Y031050D03*
X019613Y031050D03*
X018613Y031050D03*
X017613Y031050D03*
X016613Y031050D03*
X015613Y031050D03*
X014613Y031050D03*
X013613Y031050D03*
X012613Y031050D03*
X011613Y031050D03*
X010613Y031050D03*
X009613Y031050D03*
X008613Y031050D03*
X008613Y032050D03*
X009613Y032050D03*
X010613Y032050D03*
X011613Y032050D03*
X012613Y032050D03*
X013613Y032050D03*
X014613Y032050D03*
X015613Y032050D03*
X016613Y032050D03*
X017613Y032050D03*
X018613Y032050D03*
X019613Y032050D03*
X020613Y032050D03*
X021613Y032050D03*
X022613Y032050D03*
X023613Y032050D03*
D14*
X002852Y015912D02*
X002337Y015912D01*
X002337Y015125D02*
X002852Y015125D01*
X002852Y014337D02*
X002337Y014337D01*
X002337Y013550D02*
X002852Y013550D01*
X002852Y012763D02*
X002337Y012763D01*
X002337Y011975D02*
X002852Y011975D01*
X002852Y011188D02*
X002337Y011188D01*
X002337Y008912D02*
X002852Y008912D01*
X002852Y008125D02*
X002337Y008125D01*
X002337Y007337D02*
X002852Y007337D01*
X002852Y006550D02*
X002337Y006550D01*
X002337Y005763D02*
X002852Y005763D01*
X002852Y004975D02*
X002337Y004975D01*
X002337Y004188D02*
X002852Y004188D01*
D15*
X005113Y001550D03*
X006113Y001550D03*
X007113Y001550D03*
X008113Y001550D03*
X009113Y001550D03*
X010113Y001550D03*
X011113Y001550D03*
X012113Y001550D03*
X013113Y001550D03*
X014113Y001550D03*
X015113Y001550D03*
X017613Y001550D03*
X018613Y001550D03*
X019613Y001550D03*
X020613Y001550D03*
X021613Y001550D03*
X022613Y001550D03*
X023613Y001550D03*
X024613Y001550D03*
X024613Y002550D03*
X025613Y002550D03*
X025613Y001550D03*
X026613Y001550D03*
X027613Y001550D03*
X026613Y002550D03*
X002613Y028050D03*
X002613Y029050D03*
X002613Y030050D03*
D16*
X020113Y016550D03*
X021613Y016550D03*
X024613Y016550D03*
X026113Y016550D03*
D17*
X035613Y024050D03*
X037613Y024050D03*
X037613Y027050D03*
X035613Y027050D03*
D18*
X031613Y025550D03*
X030613Y025550D03*
X027613Y025550D03*
X027613Y026550D03*
X027613Y021550D03*
X027613Y020550D03*
X030613Y013550D03*
X031613Y013550D03*
X016613Y012050D03*
X016613Y011050D03*
X016613Y006050D03*
X016613Y005050D03*
X005113Y005050D03*
X005113Y006050D03*
X005113Y011050D03*
X005113Y012050D03*
X009113Y028550D03*
X010113Y028550D03*
X014113Y028550D03*
X015113Y028550D03*
D19*
X016113Y016550D03*
X012113Y016550D03*
X029113Y029050D03*
X032113Y029050D03*
X035113Y029050D03*
D20*
X036113Y029050D03*
X033113Y029050D03*
X030113Y029050D03*
X016113Y015550D03*
X012113Y015550D03*
D21*
X030113Y031550D03*
X031113Y031550D03*
X031113Y032550D03*
X030113Y032550D03*
X032113Y032550D03*
X033113Y032550D03*
X033113Y031550D03*
X032113Y031550D03*
X034113Y031550D03*
X034113Y032550D03*
D22*
X003608Y025950D02*
X002618Y025950D01*
X002618Y024390D02*
X003608Y024390D01*
X003608Y022830D02*
X002618Y022830D01*
X002618Y021270D02*
X003608Y021270D01*
X003608Y019710D02*
X002618Y019710D01*
X002618Y018150D02*
X003608Y018150D01*
D23*
X027613Y002550D03*
D24*
X027593Y002550D01*
X027033Y003110D01*
X027033Y006950D01*
X027433Y007030D02*
X026553Y007910D01*
X026553Y007510D01*
X026153Y007110D01*
X026113Y007050D01*
X026633Y006470D02*
X026633Y002550D01*
X026613Y002550D01*
X026633Y002550D02*
X026633Y001590D01*
X026613Y001550D01*
X027593Y001590D02*
X027613Y001550D01*
X027593Y001590D02*
X027593Y002550D01*
X028553Y001030D02*
X025673Y001030D01*
X025673Y001510D01*
X025613Y001550D01*
X025593Y001590D01*
X025593Y002550D01*
X025613Y002550D01*
X025593Y002550D02*
X025593Y004390D01*
X025273Y004710D01*
X025273Y006870D01*
X025113Y007030D01*
X025113Y007050D01*
X025113Y007430D01*
X025513Y007830D01*
X025513Y012630D01*
X025273Y012870D01*
X025113Y013050D01*
X025113Y013030D01*
X025273Y012870D01*
X025273Y016790D01*
X025193Y016870D01*
X025193Y019830D01*
X024393Y020630D01*
X024553Y020790D01*
X024553Y022550D01*
X024613Y022550D01*
X024633Y022550D01*
X024793Y022710D01*
X024793Y023910D01*
X025033Y024150D01*
X025033Y027110D01*
X024633Y027510D01*
X024613Y027550D01*
X025273Y027910D02*
X025273Y031990D01*
X024553Y032710D01*
X015193Y032710D01*
X015193Y029110D01*
X015593Y028710D01*
X015593Y028390D01*
X014953Y027750D01*
X014953Y020230D01*
X016073Y019110D01*
X016113Y019050D01*
X016153Y019030D01*
X017033Y018150D01*
X017033Y015270D01*
X016633Y015190D02*
X016633Y016150D01*
X016633Y015190D02*
X015753Y014310D01*
X015753Y003190D01*
X014113Y001550D01*
X013593Y001030D02*
X023113Y001030D01*
X023113Y003030D01*
X024073Y003990D01*
X024113Y004050D01*
X024073Y004070D01*
X023673Y004470D01*
X023673Y006070D01*
X023673Y009430D01*
X024073Y009830D01*
X024073Y009990D01*
X024113Y010050D01*
X024073Y010070D01*
X023913Y010230D01*
X023913Y012390D01*
X023673Y012630D01*
X023673Y018070D01*
X023673Y019510D01*
X023613Y019550D01*
X023593Y019590D01*
X023193Y019990D01*
X023193Y022950D01*
X023433Y023190D01*
X023433Y024390D01*
X023593Y024550D01*
X023613Y024550D01*
X023193Y024310D02*
X023193Y025670D01*
X023593Y025670D02*
X023593Y027510D01*
X023613Y027550D01*
X023033Y027110D02*
X022793Y026870D01*
X022793Y024710D01*
X022633Y024550D01*
X022613Y024550D01*
X022153Y024230D02*
X022153Y026790D01*
X022233Y026870D01*
X022073Y027190D02*
X021833Y026950D01*
X021833Y024710D01*
X021673Y024550D01*
X021613Y024550D01*
X022153Y024230D02*
X021753Y023830D01*
X021753Y022630D01*
X021673Y022550D01*
X021613Y022550D01*
X022153Y023190D02*
X022153Y019190D01*
X022313Y019030D01*
X022313Y016390D01*
X021673Y015750D01*
X021673Y004470D01*
X022073Y004070D01*
X022113Y004050D01*
X022713Y004470D02*
X022713Y018390D01*
X023193Y018870D01*
X021913Y019270D02*
X021913Y018390D01*
X021193Y018790D02*
X021193Y021830D01*
X020633Y022550D02*
X020613Y022550D01*
X020633Y022550D02*
X020793Y022710D01*
X020793Y023910D01*
X021033Y024150D01*
X021033Y030630D01*
X020613Y031050D01*
X020073Y031590D02*
X019613Y032050D01*
X020073Y031590D02*
X020073Y024150D01*
X019913Y023990D01*
X019913Y022790D01*
X019673Y022550D01*
X019613Y022550D01*
X020153Y022230D02*
X020153Y023910D01*
X020553Y024310D01*
X020553Y024550D01*
X020613Y024550D01*
X022613Y022550D02*
X022633Y022550D01*
X022953Y022870D01*
X022953Y024070D01*
X023193Y024310D01*
X024073Y025190D02*
X023593Y025670D01*
X023993Y025750D02*
X024073Y025830D01*
X024073Y028310D01*
X023673Y028790D02*
X023673Y029750D01*
X024553Y030630D01*
X024553Y031030D01*
X024613Y031050D01*
X024153Y030710D02*
X024073Y030790D01*
X024073Y032230D01*
X023833Y032470D01*
X018073Y032470D01*
X018073Y031910D01*
X017673Y031510D01*
X017673Y031110D01*
X017613Y031050D01*
X017833Y030630D02*
X018153Y030950D01*
X018153Y031510D01*
X018553Y031030D02*
X018613Y031050D01*
X018553Y031030D02*
X018553Y029670D01*
X018233Y029350D01*
X017433Y030310D02*
X017433Y025350D01*
X016153Y024070D01*
X016113Y024050D01*
X015593Y024550D02*
X015433Y024710D01*
X015433Y027590D01*
X016233Y028390D01*
X016233Y030470D01*
X015833Y030630D02*
X016153Y030950D01*
X016153Y031590D01*
X016613Y032050D01*
X016793Y032470D02*
X015673Y032470D01*
X015673Y032070D01*
X015613Y032050D01*
X014613Y032050D02*
X014553Y032070D01*
X014553Y032470D01*
X013433Y032470D01*
X013193Y032230D01*
X013193Y026150D01*
X013113Y026070D01*
X013113Y026050D01*
X012393Y025350D02*
X012393Y030870D01*
X012553Y031030D01*
X012613Y031050D01*
X012793Y030310D02*
X012793Y026950D01*
X013593Y027430D02*
X013593Y031030D01*
X013613Y031050D01*
X014073Y030950D02*
X014073Y031590D01*
X013613Y032050D01*
X012613Y032050D02*
X012553Y032070D01*
X012553Y032470D01*
X011433Y032470D01*
X011193Y032230D01*
X011193Y028070D01*
X010153Y027030D01*
X010153Y021590D01*
X011513Y021590D01*
X011833Y021910D01*
X011833Y022310D01*
X011113Y023030D01*
X011113Y023050D01*
X010393Y022790D02*
X010393Y026950D01*
X011593Y028150D01*
X011593Y031030D01*
X011613Y031050D01*
X012073Y031590D02*
X011613Y032050D01*
X012073Y031590D02*
X012073Y026070D01*
X011113Y025110D01*
X011113Y025050D01*
X011113Y024070D02*
X011113Y024050D01*
X011113Y024070D02*
X012393Y025350D01*
X013113Y025110D02*
X013113Y025050D01*
X013113Y025110D02*
X014633Y026630D01*
X014633Y030390D01*
X014073Y030950D01*
X015833Y030630D02*
X015833Y028310D01*
X015193Y027670D01*
X015193Y023990D01*
X016073Y023110D01*
X016113Y023050D01*
X017833Y022630D02*
X017833Y011350D01*
X017593Y010950D02*
X017593Y001590D01*
X017613Y001550D01*
X017993Y002150D02*
X018553Y001590D01*
X018613Y001550D01*
X017993Y002150D02*
X017993Y008550D01*
X018953Y008150D02*
X019673Y007430D01*
X019673Y005510D01*
X021113Y004070D01*
X021113Y004050D01*
X020153Y003990D02*
X020113Y004050D01*
X020153Y003990D02*
X022073Y002070D01*
X020613Y001550D02*
X020553Y001590D01*
X018713Y003430D01*
X018713Y005430D01*
X018393Y005750D01*
X018953Y006390D02*
X018553Y006790D01*
X018553Y010390D01*
X019673Y011510D01*
X020073Y012230D02*
X019513Y012790D01*
X019513Y016230D01*
X019433Y016310D01*
X019433Y018550D01*
X020153Y019270D01*
X020153Y020150D01*
X018953Y019910D02*
X018953Y022070D01*
X019033Y022150D01*
X019033Y031590D01*
X018633Y031990D01*
X018613Y032050D01*
X019613Y031050D02*
X019673Y031030D01*
X019673Y029110D01*
X021673Y030390D02*
X021673Y031030D01*
X021613Y031050D01*
X021673Y030390D02*
X022073Y029990D01*
X022073Y027190D01*
X022553Y027590D02*
X022613Y027550D01*
X022553Y027590D02*
X022313Y027830D01*
X022313Y030230D01*
X022233Y030310D01*
X022633Y031030D02*
X022613Y031050D01*
X022633Y031030D02*
X022633Y028710D01*
X023033Y028310D01*
X023033Y027110D01*
X023353Y028470D02*
X023673Y028790D01*
X023193Y029030D02*
X023193Y031590D01*
X023593Y031990D01*
X023613Y032050D01*
X024613Y032050D02*
X024633Y031990D01*
X025033Y031590D01*
X025033Y030310D01*
X024073Y029350D01*
X023193Y029030D02*
X023033Y028870D01*
X025273Y027910D02*
X025593Y027590D01*
X025613Y027550D01*
X025673Y027510D01*
X026073Y027110D01*
X026073Y022950D01*
X025673Y022550D01*
X025613Y022550D01*
X024073Y022950D02*
X024073Y025190D01*
X024073Y022950D02*
X023673Y022550D01*
X023613Y022550D01*
X023593Y022550D01*
X023593Y021030D01*
X023993Y020630D01*
X023993Y019990D01*
X024073Y019910D01*
X024073Y016870D01*
X023993Y016790D01*
X023993Y013190D01*
X024073Y013110D01*
X024113Y013050D01*
X024153Y013030D01*
X024553Y012630D01*
X024553Y007510D01*
X024153Y007110D01*
X024113Y007050D01*
X023433Y007430D02*
X023433Y009510D01*
X023513Y009590D01*
X023513Y011750D01*
X023113Y013050D02*
X023113Y013110D01*
X023273Y013270D01*
X023273Y014630D01*
X020953Y013910D02*
X020953Y018550D01*
X021193Y018790D01*
X021673Y019510D02*
X021613Y019550D01*
X021673Y019510D02*
X021913Y019270D01*
X019193Y021270D02*
X020153Y022230D01*
X019193Y021270D02*
X019193Y014470D01*
X018793Y014070D01*
X020153Y013110D02*
X020113Y013050D01*
X020153Y013110D02*
X020953Y013910D01*
X020073Y012230D02*
X020073Y010070D01*
X020113Y010050D01*
X020793Y008150D02*
X020793Y007750D01*
X020153Y007110D01*
X020113Y007050D01*
X021113Y007050D02*
X021113Y007110D01*
X021273Y007270D01*
X021273Y008150D01*
X023113Y007110D02*
X023113Y007050D01*
X023113Y007110D02*
X023433Y007430D01*
X024713Y005110D02*
X024713Y002630D01*
X024633Y002550D01*
X024613Y002550D01*
X024633Y002550D02*
X024633Y001590D01*
X024613Y001550D01*
X023113Y004050D02*
X023113Y004070D01*
X022713Y004470D01*
X019113Y004070D02*
X019113Y004050D01*
X019113Y004070D02*
X018953Y004230D01*
X018953Y006390D01*
X014613Y007050D02*
X014553Y007110D01*
X013673Y007110D01*
X013613Y007050D01*
X013593Y007110D01*
X013113Y007110D01*
X013113Y013110D01*
X012633Y013110D01*
X012613Y013050D01*
X013113Y013110D02*
X013593Y013110D01*
X013613Y013050D01*
X013673Y013110D01*
X014553Y013110D01*
X014613Y013050D01*
X012633Y013910D02*
X012153Y013430D01*
X012153Y012470D01*
X012633Y011990D01*
X012633Y010070D01*
X012613Y010050D01*
X012153Y009590D01*
X012153Y004710D01*
X012553Y004310D01*
X012553Y004070D01*
X012613Y004050D01*
X012633Y003990D01*
X013113Y003510D01*
X013113Y001550D01*
X013113Y001510D01*
X013593Y001030D01*
X012073Y001030D02*
X012073Y001510D01*
X012113Y001550D01*
X012073Y001030D02*
X004873Y001030D01*
X004553Y001350D01*
X004553Y003190D01*
X002713Y003190D01*
X001913Y003990D01*
X001913Y005910D01*
X002553Y006550D01*
X002595Y006550D01*
X006873Y002790D02*
X008113Y001550D01*
X009113Y001590D02*
X009113Y001550D01*
X009113Y001590D02*
X007193Y003510D01*
X007193Y011510D01*
X005513Y013190D01*
X004633Y014310D02*
X004633Y011830D01*
X004953Y011510D01*
X006873Y011510D01*
X006873Y002790D01*
X009193Y005350D02*
X010073Y004470D01*
X010073Y001590D01*
X010113Y001550D01*
X011113Y001550D02*
X011113Y004390D01*
X009993Y005510D01*
X009193Y005350D02*
X009193Y007510D01*
X008953Y007750D01*
X009993Y008630D02*
X008633Y009990D01*
X008613Y010050D01*
X009193Y010470D02*
X009193Y018070D01*
X008793Y017670D02*
X008793Y026390D01*
X010233Y027830D01*
X010233Y027910D01*
X010633Y027830D02*
X010633Y031030D01*
X010613Y031050D01*
X010153Y030950D02*
X010153Y031590D01*
X010613Y032050D01*
X009613Y032050D02*
X009593Y031990D01*
X009193Y031590D01*
X009193Y031030D01*
X008633Y030470D01*
X008633Y027910D01*
X008793Y027750D01*
X009593Y027510D02*
X009593Y030390D01*
X010153Y030950D01*
X007433Y030310D02*
X007433Y023750D01*
X008073Y023110D01*
X008113Y023050D01*
X009193Y023590D02*
X009193Y022230D01*
X010073Y021350D01*
X010073Y009750D01*
X010393Y009430D01*
X010393Y007270D01*
X010613Y007050D01*
X010953Y007590D02*
X011193Y007350D01*
X011193Y005350D01*
X012153Y004390D01*
X012153Y002870D01*
X012613Y007050D02*
X012633Y007110D01*
X013113Y007110D01*
X011613Y007050D02*
X011593Y007110D01*
X011433Y007270D01*
X011433Y009350D01*
X011193Y009590D01*
X011193Y018310D01*
X012153Y019270D01*
X012153Y023030D01*
X013113Y023990D01*
X013113Y024050D01*
X011113Y022070D02*
X011113Y022050D01*
X011113Y022070D02*
X010393Y022790D01*
X009753Y023670D02*
X009913Y023830D01*
X009913Y027110D01*
X010633Y027830D01*
X009593Y027510D02*
X008153Y026070D01*
X008113Y026050D01*
X003753Y030230D02*
X002633Y029110D01*
X002613Y029050D01*
X002633Y029030D01*
X002633Y028070D01*
X002613Y028050D01*
X003753Y030230D02*
X003753Y033030D01*
X024953Y033030D01*
X028313Y029670D01*
X028313Y028550D01*
X036153Y028550D01*
X037593Y027110D01*
X037613Y027050D01*
X037033Y026070D02*
X037033Y016950D01*
X036633Y016550D01*
X036613Y016550D01*
X035033Y016550D02*
X034873Y016710D01*
X035033Y016550D02*
X035033Y015110D01*
X034713Y014790D01*
X034713Y013910D01*
X034633Y013830D01*
X034233Y013750D02*
X034233Y017030D01*
X034873Y017670D01*
X034873Y017190D02*
X034473Y016790D01*
X034473Y015590D01*
X034633Y015430D01*
X035273Y014790D02*
X035113Y014630D01*
X035273Y014790D02*
X035273Y018150D01*
X035113Y018310D01*
X035513Y019110D02*
X035513Y013350D01*
X035193Y013030D01*
X035193Y011190D01*
X034793Y010790D02*
X033513Y012070D01*
X033513Y018150D01*
X032613Y019050D01*
X032233Y019510D02*
X033753Y019510D01*
X033753Y012710D01*
X033913Y012550D01*
X034313Y012630D02*
X033993Y012950D01*
X033993Y018310D01*
X034153Y018470D01*
X033273Y017350D02*
X033273Y006710D01*
X032613Y006050D01*
X033193Y005590D02*
X033913Y006310D01*
X033913Y009430D01*
X035753Y011270D01*
X035753Y011990D01*
X034713Y012150D02*
X034553Y012310D01*
X034553Y013430D01*
X034233Y013750D01*
X034313Y012630D02*
X034313Y011750D01*
X035753Y013110D02*
X035753Y019350D01*
X033593Y021510D01*
X032633Y021990D02*
X032613Y022050D01*
X032633Y021990D02*
X035513Y019110D01*
X036153Y019430D02*
X036153Y009990D01*
X036553Y009590D01*
X036613Y009550D01*
X037613Y009550D02*
X037673Y009510D01*
X038073Y009110D01*
X038073Y004950D01*
X037593Y004470D01*
X037593Y004950D02*
X035593Y002950D01*
X036613Y005550D02*
X036553Y005590D01*
X034313Y007830D01*
X034313Y008870D01*
X034873Y009750D02*
X036153Y008470D01*
X036153Y007430D01*
X036553Y007030D01*
X037593Y007030D01*
X037593Y006550D01*
X037613Y006550D01*
X037593Y005990D02*
X037593Y005590D01*
X037613Y005550D01*
X037593Y005990D02*
X036553Y005990D01*
X036153Y006390D01*
X036153Y006550D01*
X034713Y007990D01*
X036953Y008070D02*
X037193Y008310D01*
X037193Y010710D01*
X037593Y011110D01*
X038073Y011110D01*
X038073Y013670D01*
X037753Y013990D01*
X036633Y013990D01*
X036633Y013590D01*
X036613Y013550D01*
X037193Y013110D02*
X037593Y013510D01*
X037613Y013550D01*
X037193Y013110D02*
X037193Y012310D01*
X036953Y012070D01*
X032073Y011350D02*
X031913Y011190D01*
X031913Y004390D01*
X032553Y005030D01*
X032613Y005050D01*
X031913Y004390D02*
X028553Y001030D01*
X028953Y004630D02*
X027433Y006150D01*
X027433Y007030D01*
X026553Y007910D02*
X026553Y012630D01*
X026153Y013030D01*
X026113Y013050D01*
X026153Y013110D01*
X026153Y014550D01*
X026873Y015270D01*
X028553Y013350D02*
X028553Y017190D01*
X028953Y017590D01*
X028953Y021510D01*
X030233Y021510D01*
X031593Y021030D02*
X032553Y020070D01*
X032613Y020050D01*
X032233Y019510D02*
X031753Y019990D01*
X030633Y018230D02*
X030633Y023190D01*
X031513Y024070D01*
X031913Y024470D02*
X031913Y022870D01*
X032313Y022470D01*
X036153Y022470D01*
X036153Y021350D01*
X036553Y020950D01*
X036553Y020550D01*
X036613Y020550D01*
X036153Y019430D02*
X034713Y020870D01*
X032613Y018050D02*
X032633Y017990D01*
X033273Y017350D01*
X032613Y017050D02*
X032553Y017030D01*
X031913Y016390D01*
X031913Y013910D01*
X032073Y013750D01*
X032073Y011350D01*
X031273Y012070D02*
X031273Y005190D01*
X026953Y009110D02*
X028953Y011110D01*
X028953Y017270D01*
X029193Y017510D01*
X030793Y017510D01*
X031593Y017910D02*
X031753Y017750D01*
X031753Y017030D01*
X031193Y015430D02*
X031273Y015350D01*
X031273Y014310D01*
X031193Y014230D01*
X030873Y015110D02*
X030873Y015270D01*
X030873Y015110D02*
X029993Y014230D01*
X031193Y015430D02*
X031193Y022710D01*
X031033Y022870D01*
X031913Y024470D02*
X030153Y024470D01*
X028713Y023030D01*
X028713Y018390D01*
X028153Y017830D01*
X028153Y011270D01*
X027273Y010390D01*
X027193Y010870D02*
X027273Y010950D01*
X027273Y018950D01*
X028073Y018710D02*
X028073Y029030D01*
X026793Y030310D01*
X026393Y030870D02*
X026393Y026550D01*
X026793Y026150D01*
X028473Y023270D02*
X030153Y024950D01*
X030153Y025750D01*
X030473Y026070D01*
X037033Y026070D01*
X028313Y018470D02*
X028073Y018710D01*
X030793Y012550D02*
X031273Y012070D01*
X018953Y019910D02*
X018633Y019590D01*
X018613Y019550D01*
X017433Y021430D02*
X017433Y015110D01*
X017033Y014710D01*
X017033Y011510D02*
X017593Y010950D01*
X012633Y013910D02*
X012633Y016710D01*
X012393Y016950D01*
X012393Y020310D01*
X013113Y021030D01*
X013113Y021050D01*
X016113Y025050D02*
X016153Y025110D01*
X017033Y025990D01*
X017033Y032230D01*
X016793Y032470D01*
X017833Y030630D02*
X017833Y023910D01*
X017753Y023830D01*
X013833Y027190D02*
X013593Y027430D01*
X025673Y029350D02*
X025673Y030630D01*
X004633Y014310D02*
X002633Y014310D01*
X002595Y014337D01*
X009193Y010470D02*
X009613Y010050D01*
X010613Y010050D02*
X010633Y009990D01*
X010953Y009670D01*
X010953Y007590D01*
X011613Y010050D02*
X011673Y010070D01*
X012233Y010630D01*
X012233Y011910D01*
D25*
X012233Y011910D03*
X009993Y008630D03*
X008953Y007750D03*
X009993Y005510D03*
X012153Y002870D03*
X018393Y005750D03*
X018953Y008150D03*
X017993Y008550D03*
X020793Y008150D03*
X021273Y008150D03*
X023673Y006070D03*
X024713Y005110D03*
X026633Y006470D03*
X027033Y006950D03*
X026953Y009110D03*
X027273Y010390D03*
X027193Y010870D03*
X028553Y013350D03*
X029993Y014230D03*
X031193Y014230D03*
X030873Y015270D03*
X031593Y016550D03*
X031753Y017030D03*
X031593Y017910D03*
X030793Y017510D03*
X030633Y018230D03*
X031753Y019990D03*
X031593Y021030D03*
X030233Y021510D03*
X031033Y022870D03*
X031513Y024070D03*
X028473Y023270D03*
X026633Y021430D03*
X024393Y020630D03*
X023593Y021030D03*
X023193Y018870D03*
X023673Y018070D03*
X021913Y018390D03*
X020153Y020150D03*
X021193Y021830D03*
X022153Y023190D03*
X023193Y025670D03*
X023993Y025750D03*
X022233Y026870D03*
X023353Y028470D03*
X023033Y028870D03*
X024073Y029350D03*
X024073Y028310D03*
X025673Y029350D03*
X026793Y030310D03*
X026393Y030870D03*
X025673Y030630D03*
X024153Y030710D03*
X022233Y030310D03*
X019673Y029110D03*
X018233Y029350D03*
X017433Y030310D03*
X016233Y030470D03*
X018153Y031510D03*
X014233Y027670D03*
X013833Y027190D03*
X012793Y026950D03*
X010233Y027910D03*
X008793Y027750D03*
X007033Y029510D03*
X007433Y030310D03*
X006153Y031350D03*
X012793Y030310D03*
X015593Y024550D03*
X017753Y023830D03*
X017833Y022630D03*
X017433Y021430D03*
X016633Y016150D03*
X017033Y015270D03*
X017033Y014710D03*
X018793Y014070D03*
X019673Y011510D03*
X017833Y011350D03*
X017033Y011510D03*
X023273Y014630D03*
X023513Y011750D03*
X026873Y015270D03*
X027753Y017110D03*
X028313Y018470D03*
X027273Y018950D03*
X033593Y021510D03*
X034713Y020870D03*
X034153Y018470D03*
X035113Y018310D03*
X034873Y017670D03*
X034873Y017190D03*
X034873Y016710D03*
X034633Y015430D03*
X035113Y014630D03*
X034633Y013830D03*
X035753Y013110D03*
X035753Y011990D03*
X035193Y011190D03*
X034793Y010790D03*
X034313Y011750D03*
X034713Y012150D03*
X033913Y012550D03*
X031673Y011750D03*
X030793Y012550D03*
X034873Y009750D03*
X034313Y008870D03*
X034713Y007990D03*
X036953Y008070D03*
X037593Y004950D03*
X037593Y004470D03*
X037273Y003510D03*
X035593Y002950D03*
X033193Y005590D03*
X031273Y005190D03*
X028953Y004630D03*
X022073Y002070D03*
X036953Y012070D03*
X026793Y026150D03*
X009753Y023670D03*
X009193Y023590D03*
X009193Y018070D03*
X008793Y017670D03*
X005513Y013190D03*
D26*
X005113Y012050D02*
X005113Y019270D01*
X003113Y021270D01*
X003113Y019710D02*
X003113Y019670D01*
X001913Y018470D01*
X001913Y016630D01*
X002553Y015990D01*
X002595Y015912D01*
X002595Y012763D02*
X002633Y012710D01*
X002793Y012710D01*
X003353Y012150D01*
X003353Y005830D01*
X002633Y005830D01*
X002595Y005763D01*
X004553Y005430D02*
X004553Y004870D01*
X004873Y004550D01*
X004873Y001830D01*
X005113Y001590D01*
X005113Y001550D01*
X005193Y002470D02*
X006113Y001550D01*
X005193Y002470D02*
X005193Y004950D01*
X005113Y005030D01*
X005113Y005050D01*
X005193Y005110D01*
X005673Y005590D01*
X005673Y010470D01*
X005113Y011030D01*
X005113Y011050D01*
X007613Y013050D02*
X007673Y013030D01*
X008073Y012630D01*
X008073Y007510D01*
X007613Y007050D01*
X005113Y006050D02*
X005113Y005990D01*
X004553Y005430D01*
X007613Y004050D02*
X007673Y004070D01*
X008553Y004070D01*
X008613Y004050D01*
X008713Y004070D01*
X009593Y004070D01*
X009613Y004050D01*
X013613Y004050D02*
X013673Y004070D01*
X014553Y004070D01*
X014613Y004050D01*
X014633Y004150D01*
X015113Y004630D01*
X015113Y009590D01*
X014713Y009990D01*
X014613Y010050D01*
X014633Y010150D01*
X015433Y010950D01*
X015433Y016630D01*
X015513Y016710D01*
X013193Y019030D01*
X013113Y019050D01*
X013113Y020050D01*
X015513Y016710D02*
X015673Y016550D01*
X016113Y016550D01*
X018153Y014070D02*
X018153Y022150D01*
X018473Y022470D01*
X018613Y022550D01*
X018553Y022550D01*
X018153Y022950D01*
X018153Y027110D01*
X018553Y027510D01*
X018613Y027550D01*
X014233Y027670D02*
X014233Y028470D01*
X014153Y028550D01*
X014113Y028550D01*
X008113Y020050D02*
X008153Y019990D01*
X008153Y019110D01*
X008113Y019050D01*
X016073Y011510D02*
X016613Y012050D01*
X016073Y011510D02*
X016073Y006550D01*
X016553Y006070D01*
X016613Y006050D01*
X014613Y010050D02*
X014553Y010070D01*
X013673Y010070D01*
X013613Y010050D01*
X018153Y014070D02*
X019113Y013110D01*
X019113Y013050D01*
X025593Y007510D02*
X025593Y004790D01*
X026073Y004310D01*
X026073Y004070D01*
X026113Y004050D01*
X029593Y004070D02*
X029613Y004050D01*
X029593Y004070D02*
X029593Y005030D01*
X029613Y005050D01*
X030393Y005830D01*
X030393Y013510D01*
X030613Y013550D01*
X030553Y013590D01*
X029593Y013590D01*
X029593Y015990D01*
X029613Y016050D01*
X029593Y016070D01*
X029593Y017030D01*
X029613Y017050D01*
X027753Y017110D02*
X027753Y020390D01*
X027673Y020470D01*
X027613Y020550D01*
X027593Y020550D01*
X027033Y021110D01*
X027033Y024950D01*
X027593Y025510D01*
X027613Y025550D01*
X027193Y025910D02*
X026553Y025270D01*
X026553Y021510D01*
X026633Y021430D01*
X026153Y020950D01*
X026153Y016550D01*
X026113Y016550D01*
X025613Y019550D02*
X025593Y019590D01*
X025513Y019670D01*
X025513Y021670D01*
X025113Y022070D01*
X025113Y023830D01*
X025593Y024310D01*
X025593Y024550D01*
X025613Y024550D01*
X027193Y025910D02*
X027193Y026150D01*
X027593Y026550D01*
X027613Y026550D01*
X031613Y025550D02*
X031673Y025510D01*
X032233Y024950D01*
X032233Y023430D01*
X032613Y023050D01*
X037613Y024050D02*
X038393Y023270D01*
X038393Y004630D01*
X037273Y003510D01*
X031673Y011750D02*
X031673Y013510D01*
X031613Y013550D01*
X031593Y013590D01*
X031593Y016550D01*
X026113Y010050D02*
X026073Y009990D01*
X025833Y009750D01*
X025833Y007750D01*
X025593Y007510D01*
D27*
X007033Y028310D02*
X003113Y024390D01*
X003113Y025950D02*
X003113Y025990D01*
X006153Y029030D01*
X006153Y031350D01*
X007033Y029510D02*
X007033Y028310D01*
X029113Y029050D02*
X029113Y029110D01*
X030073Y030070D01*
X030073Y031510D01*
X030113Y031550D01*
X030233Y031590D01*
X031113Y031590D01*
X031113Y031550D01*
X031193Y031510D01*
X031993Y031510D01*
X032113Y031550D01*
X032233Y031590D01*
X033113Y031590D01*
X033113Y031550D01*
X033193Y031510D01*
X033993Y031510D01*
X034113Y031550D01*
X034153Y031510D01*
X034153Y030070D01*
X035113Y029110D01*
X035113Y029050D01*
X036073Y029110D02*
X036113Y029050D01*
X036073Y029110D02*
X036073Y030630D01*
X034233Y032470D01*
X034113Y032550D01*
X033113Y032550D01*
X032113Y032550D01*
X031113Y032550D01*
X030113Y032550D01*
X032113Y031550D02*
X032153Y031510D01*
X032153Y029110D01*
X032113Y029050D01*
M02*
